<mxfile>
    <diagram id="Q17n9BXPmTYC8mlm4Y2T" name="Page-1">
        <mxGraphModel dx="1627" dy="441" grid="1" gridSize="10" guides="1" tooltips="1" connect="1" arrows="1" fold="1" page="1" pageScale="1" pageWidth="850" pageHeight="1100" background="#114B5F" math="0" shadow="0">
            <root>
                <mxCell id="0"/>
                <mxCell id="1" parent="0"/>
                <mxCell id="5" value="&lt;font color=&quot;#ffffff&quot;&gt;Simple&lt;br&gt;Sensor&lt;br&gt;Simulator&lt;br&gt;&lt;/font&gt;" style="strokeWidth=2;html=1;shape=mxgraph.flowchart.terminator;whiteSpace=wrap;labelBackgroundColor=none;fillColor=#F45B69;strokeColor=#028090;fontColor=#E4FDE1;" vertex="1" parent="1">
                    <mxGeometry x="120" y="160" width="100" height="60" as="geometry"/>
                </mxCell>
                <mxCell id="6" value="" style="endArrow=classic;startArrow=classic;html=1;fillColor=#6a00ff;fontColor=#E4FDE1;strokeColor=#3700CC;strokeWidth=3;entryX=0;entryY=0.25;entryDx=0;entryDy=0;" edge="1" parent="1" source="5" target="7">
                    <mxGeometry width="50" height="50" relative="1" as="geometry">
                        <mxPoint x="400" y="350" as="sourcePoint"/>
                        <mxPoint x="450" y="300" as="targetPoint"/>
                    </mxGeometry>
                </mxCell>
                <mxCell id="8" value="Inter Process&lt;br style=&quot;font-size: 15px;&quot;&gt;Communication&lt;br style=&quot;font-size: 15px;&quot;&gt;via ZeroMQ" style="edgeLabel;html=1;align=center;verticalAlign=middle;resizable=0;points=[];fontColor=#FFFFFF;labelBackgroundColor=none;fontSize=15;" vertex="1" connectable="0" parent="6">
                    <mxGeometry x="0.1294" y="-1" relative="1" as="geometry">
                        <mxPoint x="-6" y="-1" as="offset"/>
                    </mxGeometry>
                </mxCell>
                <mxCell id="7" value="Traffic Simulator" style="shape=image;verticalLabelPosition=bottom;labelBackgroundColor=none;verticalAlign=top;aspect=fixed;imageAspect=0;image=data:image/png,iVBORw0KGgoAAAANSUhEUgAAAggAAADbCAYAAAAIyWnLAAAgAElEQVR4Xuy9B3hc13Wu/U7vwKD3QhAgARJsYu8qpLocWXIvsq24JIqrrDiK/Tu2o1jRtWUnubk3TnKvfWU5tmzHlm1Z1RJNiZJIiZ0EQYAkei8DDKb3mf9ZGwBFikWUxc6zn2dYZs7ss/e3z5z9nbW+tZauoqIig9Y0BDQENAQ0BDQENATOCwI6nU6dJ5M5e9uvxWJR/cXj8bM2B92xBGF2RS6Hescx2eyYLFYITxCOpwEDkMLlchAKRUin5b3Tt+rqalKpFD6fj0AgcBwQ7pwsJrx+XC4XhW4nvQNDxFNnD6i3Gpv2uYaAhsDJEVi0aCGHj7RhMRnIGG0kfMPEdHaMJIjE4hRVN2APd+OurINMirTOTAad3Ono6+1nfGRYg1ZDQEPgNAiYTCbq6uqwWq00NTWRSCROOFpnMGMxmkjGQyTPYGvU6/UsX76cSCTC3r17VX9CQsrKyohGo+pcfX196n2bzaZIhOzjFRUV9PT0nHK0RwlCQc1cFs6fxx+efYWcXHAVFFM0cRCTQUf/qJGegI/rr19DRXUVExEbA+172bZ15yk7vuuuuxBGIwN75JFHiEWCNNRWEy2Yz4rZDh79yXOUZhsoKcyn5VALequTm2++mV/84hfaxaUhoCFwARAw5dfzhbtuYPPjP6FuyTJcxVX86kc/Im/+bQzu30wo7KV89iKWZw1SedNnGO07wtzqHFrjM6nOSfDM755i+5YtF2Dk2ik1BC4dBNxuNx+7aiMrTeX81Uv/l7Fo4ITBFxYVcc3Vq9jy0ssMDnlYs2YNQ0NDtLW1nXSiQgaKiooUIWhvb2diYgKn08lf/uVfsnv3bnp7ezl8+LD67uzZsxkYGFBk4vbbb+dXv/qVen/lypXEYjF1/HQ7ShA2rmigpT9EWSZI3YY76OntZkaiFcva+/jJd77J7Poy3vPeG+mM5jHDMMjA8Di//fWvGRiLnHTAubm5CKsRtjI4OIjFkGb5TGEeRWy89VrcuVXsf+lZLDYnjz3xPGOBGMXFxUdZzqWz3NpINQQuDwQWr7mGwbZmNiytJRRJELc6efKpF6msacCmj9N6ZPLmtHhmPpmShRzeu43C8pkUOfUYsgoZ7mjiSNfg5QGGNgsNgXOEgDw0fzB/Htf4svhi8BXGM7ETzpRlNVFS1UjXYD8x/wh5eXnKEhAKhU46qkcffZQf/OAH1NfXK6vEzp07MRgMlJaW4vf71fuvv/66+q7syTfeeKP6++mnn1ZkQprs2WJVmP6/vHeci+Ec4aF1qyGgIaAhoCGgIaAhcIkhoJtdUX0GHo7jZyVfyOghbdBfYtPVhqshoCGgIaAhoCGgIXAmCOjWV8x+2wQhTYakxUDMaTmTc2jHaAhoCGgIaAhoCGgIXGIIHEMQJOzirbmCHJHOQNKiJ+7SCMIltt7acDUENAQ0BDQENAROQODvS4KY9bA1aOIJ3+TerltfUa9YgfwxFZk59a8MDoeeX26q4Y6rO4hFxW4weZy8kmaNIGjX2CWGgMlJgbOUckMf+8bCiuierM1bfyc9B1/DN9p/RhNcUFuC3Wpi24FThwtJR+/+yIfY9OTT+KdEQdOdf/GD1/DPj20+7lyLbv00e578TzAWU28fo9V/YijUmwf3D5++gc17u9i0/ZD6yO20cduaOfzk2V1If/ueeZq6HD/jSRvh4DCfe+DbPPS3XzuuG7OxlAr7IO3+DF/+0Hr+6fEjVJiH6PafOrQ5y+3multvJtW1h52t/VRf/1ds/dk/nhS7L9z/eX76w5/iC5ooMo7QF3ij37mLF1E7t4HfPfozrvn4N2l5/j9ZuGwZz/7mt6deB72FAqeVBTd8iM2/+SGp5PEx4I03/jnrCwbY23SEV/e2YTIauOvGRfzwyVNEYJmqqbd20xp44+L44dM/589v/sBxY7DaC3HrPEQcxdy2rJr/enKr+ry4YTUPff0L/I8v3c2KlUt5dscYObE2Wk9zvZ3RRaYdpCFwFhAQgWRlVRW9PT0qimG63VsY4ubVy0i27SPiLuEfdw+wPWSaJAjTP4UcW5r6qiTdQzYGJ5I8/L1cllydTW9HjK/d52FwMEk8nkZ+0gmznoRmQTgLS6Z1cb4QqKlvpGLmEoa2/prl83JYfuPtZC9YQUhfwsBIkh1bX8Pu68AV7WT9p+4hkCpi984WggNHMOdXE9z5U3Ia17Nu3SKCngFe3tHJu29byTceepw6mx9T9RI6dzzJF7/1AHtbRnnmxR10bX6MT3/qM7z6ix9x672fpmbOPDa/0sVPvvdVPv7Ze+jctZUPXV2PxEYXlZbiKWxgMFTMz/7rFzgDnbgyRnSRXm6//2ts2T3OS79/jP6W1zHaK/jUx97DhM5JsHcPQ8YKvFt/zl/ffQPF5WVEZ67lO5+/h5Wr1xJy1TEYNrL1v/6Dm9fPwLH8IwzveZo7Pv8X6PQWRseMbNu2l+G+bvb+7ue8a30VDY0N5Dn0fPmhTSybnUVtpZUF9eU0LlrAhru+ycKrFnPn+gbK81w4Gxexd8TII//yGDfNc3HIMp/W3duYk29AP+YnNLSNv/iPX7Plha20bH6Mz3z6br5w/yM05KRw2MOUlThYed1NlMys5ec7PJTnFbOrfZxM/4t84iv30XbIw2tNQxzct5vhHY/jKJzB57/8FbYcHGK8aTuZzu184INrKb/2PfzooQe56yN/hq1hCR0jLp5+4lkMh3/Hx25fT2V1OV/7zQg9z/+expIIpcU2llx9PUWLV7Jt634e/Y8f4Y/l8N61Fdz02b9lV8soPa/+guv//BN8+1Of5tols9nTHmDBvAVs3bSNje9aRUfATElugt/84gnmzJnDcDKbuz/wZ2z+yUNs/ML/4KUnNzGw/Wm+9D//nXvefyfJ83Wxa+fREDgFAvPmzVO5DyRH0XS7ryjMta44jlvuxvP7/8d3hu28LgRh3ZQFQQ784ooYaxeHGQhU8dNnlnLb1UWUzUkw45qX6evX8dBDXvY3RVTSo4TFSMJl1hZBQ+CSQaC0sJDCLCcD/X1Ul7soXbiBVGQEY1EDE74E+197iRVLFrJ360ssvm4taVMRo6NebJkI8YyBmXkpQvosEpEQPc17KJuzmLJ8M0MTccaGvXT1DnDLhtU0dw0ri8LOA10EBzp51w3r2Pb8czRevYqRkIU5hXp2t3Qyo3oGmYkesix6FZIkT+KtPhuzKgr59dNbmFOWTdDnZf7yFezvHKc818TLrx+gwGXAlAyw/ppVdAfM2DMxZjbM5P/8y/9m47J6snLcJLOrGWjejrV0PqlEgqYj3RiHmli2/Cq8SQtOtxtrUQGptI4Jv44Du/dwzbJ6Hv/lL3nX9SuJJ9NYcst48rGnqK3JIquwBHN8nLrZtWzZ20tRcREufZQlS5bx2raXKFq4ij07DlJVlMfebh+DPV3Mqcwj6hkj6GmjeNkt1M4o4cU/vsja5Vex+ffPY9UnsFhiuLPtzFx7BwlPN4cmrMwsyeLFV3fznhsa6QmasMZDtI8m6OruxW0Ik5dXwJyGWbT5LRTjYff2/Th145hnLmdplYmxQAqT08JEKp+2w0fQjx7g1tvvwJb2k3SX8oOHf0h5tpzXRsWKP8PbvhtDThXJgIeBvl5Wb7iRzoFxzGYTOeYEnRM6HCO7yHI5eP1gL7e87/389JHfsWrFfEb6ujjY1n7UOZtdWkfY6+Gaefns7onjJEJC7+Kmm6/mp//3h5w8KPyS+QlpA71MESg3pXlfTpQqc4otQRN/8FsIpHXo1lY0ZMRpUGXT89DqFGWrAyRsWYwNLKBl+5cJBkzc9r3Pk4lbeeyJIP/vUS+R2KRIUSMIl+nVcplOS683o8vEOV3STskgqtPpiUfDp0TB5XKqeOFQKIxBr8NhM+MPnRjLfKoODEYjJeXl+MbHCfj9bxNtAyWlxRAPMuh54wmgwO1gdOLkMdLHnuBMMHirAVVVV6txj4+PU5DjZNQbxGo2qsxtkdipXSHOKdzCoVNje7pz6/R6cvKK0CVCeH1+rFn5hH0elUslmYyTSpw6xaw7J4dENIzdYjwFTnryC/Kx6JL0j4y/FQTa5xoClx0CDn2GfGOawYSeeGZScKC7febszN1VCfomnHx4ppGsmhBDcyt56vVvER2dj3l0jE/9w50Qzmb/YIqv/uMIE4GURhAuu8tDm5CGgIaAhoCGgIbAGwjorqtqyJRa0xREcvjbGWZyiyI8X7CYX/b/OS5dNgWDfr72F58kY3DzSn+SB384TiCSYu1NG/mb7zygevJ6vdicLswmA/opqeP0KdKpBIFgmOzs7BNwT6YyJNMZrKY38ilIXmp5EsnojcjbYuoUjYTFqOVc0C5cDQENAQ0BDQENgfOFwFEXgzlj5J8dlUq8M2h18HRyCRmslKUnuGnpH0nnWXn4jzGeavaTyqSPIQgZHvjOw9z6wY8xs9RBMqJjNJhhdrFDzWG8fSe7jgwza9kGCuwJ0ugJJExEIyE6R2LE0jrW1+diNxvV8ft2vM7IqIecBdeRY4zSNhQlmUzhjI6wfvWi84WLdh4NAQ0BDQENAQ2BKxoB3ZryhilvAyxN5vM1aznu4gn0liiYU2BKkTaaeD1g5V/6h+gPx5Bn+nXKgvD3Kujxid1NrGmcTVoX51CbB4sjnyWVLgVs//bfkle/iv5wFPG92uwOdnSkGB7qJseZRyweYdmCSmqybcr2sOmp3+MZGydrxXsZ7juC3ZLN3kM9tG15ll8+8uAVvVja5DUENAQ0BDQENATOFwK6teUiUpxqOqhIOfl6fC5ZpgQGU5JUzEanLs5DpmZ8xKWqKxLouO6m6xVBePzxx3nwuw/zra9/jRtuuol4PInFbMIwVe/6/vu+yKaXXuFLX/wc7/3AR9Ab9ISjaVKpBFaTiUQqicVixqyfFEVI5cfvf+97vP+jn+Czf3UPJqOJTU2DVGfrmFdXdr5w0c6jIaAhoCGgIaAhcEUjoCwIgsDk9vxGIqQ0OjLo0as/30hmMpkoKcOaG67lyw9+Y/I7mYxSdZ+LJnoEqQqpNQ0BDQENAQ0BDQENgfOHwFGCcOwp38iqeOJAFEHIZLj61hv4+j8/pA6QOtWnKkP5TqcimZ8KCwtVIhmtaQhoCGgIaAhoCGgInB8EdKvL52TEVjDdTk0OJms1TNZimCQIf/vdB1SCl3379lFQUEAqlVL/l6f+s9WSyaTqVwiIyzWpa3C73WRlZb2tU8j3hWSYzZdGcqeULo1BSmaepyYrG9clsGTOLj6ptmaIRjA0LjlPM9FOoyGgIaAhoCFwNhBQBEE2/mNdDDrlXpgmDdNFnN4o5qQIwi3X87XvP6jIwN69e9UG3tvbS0VFBTOqKzjUM4rv0B6W33DLcePc8vKr2ItqWDKr5IzGLwTB4/FQViShkmbGxmI8++xBZixcx7ols9n55K9Ydtt7VF8/++ljfOjDHzyhX3F/dHV1EYvFqK+vZ2y0hUNHvKxevfqEY7c+/XOaAzl86v03nNH45CAJ8zx8+LA6Picnh23PPcWH/uIzdMfs1DrPuJujBz5v2IY5Y2JdtIqHv/NvlGebmbv2Zl59/kUoncVffvim4zr95f96iLKlN+OKjFK3YA62nDewHTvwPHmNG087iFcMu3kys5lPHrqF7pEIHf2dLF5+HXk6P4f7Blm/chlmHQQT0NfbTfeeTay+4b04nZOE7XSt+4G/Inf9rVjnXMUPnvgj6zbeSklymEQsymuHQmy4YRnBQJChsRDl8QM8sWU/n/7svYTjaUSW0vnSL2jYcOKayjmP9Pk40j/BDUsrVcIirWkIaAhoCGgInD0EdGvK52QmycAbN1gxABylDFOlnI6lDFLkZv0t13Pfg19XT+XNzc0YjUaV31kIQl62n0d/8Djm7FyOdE9Qs3Ydnif/DWfVEu7+7Cchk+KBe+/BULoaS0kN1ngPy53DVKz6M/a8vp2b3vPRozOUvAhCEObVJ3E59Yx70xxqCTKSiLJ361Zc4xGe74hx93330LT5Se7/yn0noCM5p4XEBINBZeFYMC+Pf/2PLSSjEW665x5e/z8PM5HQcdNtt9ESyOLPN9bxu5/8gLqsCPtbvPy6M8XGO+9ibUUKq9XGrFmzjzvH1q1bmVc3mR2udzDDUy+MEPcfonjpUgrCwxwazDAwHsIRH8NcMJPe8RjpjJkf/sMnThhrE4f5t8TPeJAvkWPK5m++/j/ZUJ/FdR/+KF/59L1c/5kvUlqZQ0tLN9tefZ3aZTfB5u8wnLOI3LF2PvHBxTz9ux0cCumwZ2WxYY6NxvVr+c1z+3nf+z9+wvn26lp49Mh/8/3avyMeHCUuhMxZzP+89z4e/v8+TH/EjstlJTY2wrd+tpe771hD246X2NXqpSjjpSeaZGxwkL//zneYWVN5Qv8/v+tqqlZtYMWn7ufeB/6Jv/ubjxBsO0jbKy+ywz+TmbfcTs/e3XiTdtbb97KzX8eoJ0N2gY33vv/dTLz4f1j+wS+/KbsGDHvD/NcfO2gfjrCuIYcPXFN70l/FniOj/HpbH95QkvetKmP9gtKz9+vRetIQ0BDQELiMEZiyILwxw2R2FbarbyVWtQrfUIR0exPOzmcxRjwYIp6pKAa4+pYNfOWhbylicODAASwWC62treoJPcuaAIOLkKebgCGXsZ4uZtRVqZwGWRk/OmcO+3bvo7q6Br3NzUhPK/Or3JhyS+juG2XBvLnHEQQhHk67D7MpTXfPIH6fnatWXc3u115l48o5eBMWunv6qc41kjd3Fc6TWOZHRkYU0ZDx6XURIoEI4+E0XQd2Mqexns27u5lXW0ax28yLTaM4k8MsnF2F1xcnFvVSMO9aJvrblIuisqr6tJfE4a4Raivz2XWon/jgQcy55bS3tXHt0lkc9tkptkXROwuoKck9oZ8H4//OV81/od7PxMf478efo66mkvyKBnzjfhpmV7D71c3kVMzE09dJ/fKr6Xj9OVp6AyxfMBOjy016woc/CTLnpUvn0TKcIT7SztXXXH3c+cbxEUqFKdUXYtAZ6O3q4nD3CONjw9z+7tuYGBmib8jDmC9EY6mZA+M2Kt0GaquKiQQ8tPts+HoPkldWTUVZGS77ieW/R/o66WjexYob3sNIOIMjE+a1lzdTUFFLeGycwrmNtO4/QnF5BcXGcUqqZjHadwS/tZwCpxmnzseRcRP1ZScm2uoc9NM5FFCb/plYEMRVJS8htWfTDXYZ3x+0qWkIaAhcwQgcRxAixUswbvw4meI8ov1hQqMh0jodOr0Oq6+DrKafYQgMqTwI62/ewFcf/gcF3cGDB5UG4Vw0cTE4HI6j+oM/9RxiiRDrgRYR8acieOl/T64BKXEqWhaNIFz666nNQENAQ+DcIqBbVTYnIy6FhKsS09IPo1+2CNpew+srR++ZQG+A0Nwa0okkWbufwHb4aSR98vqbNnD/dyVREkp/cK6iDCRiQjZ2sVRoTUNAQ0BDQENAQ0BD4PwgoHtXzZzMPTUxvqe/g3/4py+zI+TlltICnHYrusxkboOrHuvA1efFGg9i+f23yYR9LFq7nLu+OGkKl8175syZ52fE2lk0BDQENAQ0BDQENATOOgIi5O/u7lapDMTarrumck6mypZmf/mdPPKfX6YkS4R4VvWhqP9l81/18OuYSKIf9KN77rtkohOsuG4dn/vGV1RH8oQvoYfRaFSZcLWmIaAhoCGgIaAhoCFw6SAge7js+SLqP0oQbq5uyLynLMF/ue7kX//tK9SVu1Sdd3EZiM82NzeXz/2yib17hkj74xg3f4dMZIKVG9bx2b87niBs2rQJeWlNQ0BDQENAQ0BDQEPg0kHgW9/6ljIMHEcQ1pXPzeSa0wxYqrnhxpv40KduoLau5rhZff1nTbywvR/9RD+GrT8kEw+y4rr1fO4bf32cBUHqKPz4xz++dBDRRqohoCGgIaAhoCGgIcCzzz6rPAbHEYRVZXMnMyLpdKTyF2LwJ8gvMHDbh9Zyx0fepzIWvu+Tv2IwEIf+Tej6d5HJpE/qYtAIgnaVaQhoCGgIaAhoCFx6CJyCIDSqTIqTqZJ0pAxW9KlJHYFObyJ33rV44lXoPPth9LWp/IqZKYKgWRAuvctAG7GGgIaAhoCGgIbA8Qic0oLwRlLlN9IqC2XIOMtAZ0IXGYWkZAqcPFLyIKy8bu0JIkXNgqBdchoCGgIaAhoCGgKXHgInJQgrlYvhDWLwRsWFk09wsppjWokUNQ3CpXcRaCPWENAQ0BDQENAQeDMCpyAI4mI40zbpipAQCI0gnClm2nEaAhoCGgIaAhoCFzcCpyQImSmKoNMdU7Rp6p/ymarefMz/M2gWhIt7qbXRaQhoCGgIaAhoCJw5AiclCCtKG1WqZdn/C0vzsTttqkcRLCpiMFVHL53OMDI4SjgQVseu2LCWz2thjmeOvnakhoCGgIaAhoCGwEWKwCkJgozXmWPnhvetpaS8EL1Oj06vn/xbp8NoMpFMpXn5D6+z+8X9JJMpVmxYx+e/cZ+WB+EiXWxtWBoCGgIaAhoCGgJnisApCMI85WAory9i9Yb5rFy7AYfTRcDnpbO9lVQqid5gQKfT09nRx/OPvUwkElMaBI0gnCn02nEaAhoCGgIaAhoCFy8Cp7UgVM0tZeV187nz/Z9QM7BYHTic7qPlkTvaD/L7x/+bZ/7rRSLhKKtUFINmQbh4l1sbmYaAhoCGgIaAhsCZIXBSgrC8dF5GRwYhCKs3LuQvPv/Nk/bWfqSZJx7/JU//5I+KIGgWhDMDXTtKQ0BDQENAQ0BD4GJH4DQuhgxVjWWs3biIT3/u7046j462Zn4nBOFRjSBc7AutjU9DQENAQ0BDQEPg7SBwSguCdDKjsYx1Ny7mk/d87aR9drYf5InH/5snf/wC4SkXg6ZBeDvwa8dqCGgIaAhoCGgIXJwInJYgzFxQwdU3LePjn/7KKQnC73/zK5545Hmimovh4lxhbVQaAhoCFy0CK1asILu4mFAmw45Dh4gnEmqsTqsVm9nMqN9/3Njzs7JUkHlOMEg0EqEiGmW7y4XN6aS+qopslws9kG2xkAyFGB8bIxAIsHPHjosWg4tpYG63G5fLRW9v78U0rAs2ltMShMqGUjb82UqV4yAWi6uoBQlxlJfBYCDL5aS7c4BnfraZaCTOKpUHQRMpXrDV1E6sIaAhcEERkPui1WoFvZ54MkkimVQbTsOcOZRVVTEUiXCws5NkOq3GmW2zEYhECEajLGtowG23Y45GCXi9tB05Ql9f3wnzkfK7xcXFlJaWYrFYsFitGM1m9A4HwViMtE7HgbY2Mno9udnZOO12+kZHmQiFVF9FbjfzamoosFjo7e5m1+7dhMNhdV83GY0YDQZMMv54nEQiQTKZvKCYno+TL1myRInvY7GYwnxsbOx8nPaiP8dpCYLJbmTxmkay81wKPLmAhL4KURCWmknDgT1H6GrpI51OawThol9ubYAaAhoCZwsBKXufV1BAxmCgZ3hYdZuXm0t9QwPYbHQMDuINBqkoKCCeSjE0NkY0Hic3K4uakhIsZjPtfX0Meb1Hh6SLxcjV67GkUkSDwXe0URUWFjK7sZG24WGGxsfVQ11uXh6VRUWkjUYVqt7e33+UOAgxqCwspKKwkDK3m46ODto7OxkZHVXjM+j1FLjdWM1mEpEIukyGiYkJgsHg2YL0nPZjceXgrphF1D9GxDdOPDB+Ts93OXR+UoKwrHQyD4KYstKZNHqz5DyYfueNMk7pVJpMKnO0rNPKDWv5gmZBuByuC20OGgIaAscgMGvWLHKLivCEQooMJFIpKoqLKS8vxxeP09LTg5j/K4qK1BP4oZ4efKEQdquVopwc1ZNs0nIbDcdi6v/iQnDYbFTm5xOZmODw4cNkUinysrOx6vVEAgFGpzbns7EYYnnIz8/HZDZjdToJRKN4JiaUNUOv01FbV0dpSQlmh4NoIsH+9nY1h+km86otLSXH6SQUCOALBhkfHydwjBtkbk0NboeDRDCoXBsHm5vPxtDfcR/1t3wcW3YBJruTrq1P4evrIB6aILu8Dnd5LfbcQoIj/fj62wkMd5NOxCfXyGZj7ty5ypLS39/P7bffzu7du9XrSmintCC8VbUmxReOFnueLNgk5Z6/8E3NxXAlXDjaHDUE3i4CYoUUs3htba0yw4tZe8uWLW+3m3N6vFgFrrrqKvJKSznQ18fhnh51vsriYkwWC95QSFkFZpWVUVlaSigUYn9HB8FIRJnn5em6JDeXrqEhHFarOna6yRP4DUuXootE2Pryy4x7vZinvpNOJFRfUvTuQjWHw4HZbFYuilQ6reY03RYvXkxefj75ZWX0ezzsbWvDHw4fN9S60lKyHA5FkAZGR/EGAgQDgaPHVBUWMrOyEodeTyocxjM6yo4dO5T1+Vy22TfdxcDeLViy8ggOdRMPTmC0OSlsWEJJ4yqcRRV4u1sZbt3NaMt2UrEIzuJq8mY0UDxvFQ6LiZHDe2l75ffk57jx+Xz436QNOZfjv5B9nxFBmCYDk4Tg2OLPk/9W1RzJKBeDZkG4kMupnVtD4OJFQFyUTqeTiooKcnJylNuytbWV6upq9bTZ1dWlNudDhw69I9P6yRAQ87q85F4lugBpct6Vq1bhNxho7uxUloG8rCwsJhMjPh/JVEpt2NcsXozDZFL+/QPt7YwFAkc38sLsbEUMZJOT91OplHpJu231apzpNK9u2UJ3V9fFuzDvYGSyngsWLKCkrAyjy8WwCCJbWpSmQppYLWSdS/LyFGYivhwYGzvq1pg+tRwzr7qa2RUV5DscdB46REd3N21tbSQTiUnd25SbW6wdgrfg/JbkQqejeO4Khg9uZ83nHublf/nSaWdrcmRRWL+E0oXryKmowz/US9Q3QtTn5cgLj5GKT87rSmmncTGcSATecC4cD88k581oFoQr5arR5qkh8A4Q0BtMWN152NyFyl6GdewAACAASURBVA8u95Wgpx99LKieot9Jk41EnnQtNhuhWEyZyOWJdmZNDZUzZyK9b21qwiQia6dTCfZEFyB6AXn6r5MNyukknExyqKuLSDyuxIayuYlFQDY46U/M8pl4XPngRcwnG5u4CrqPHKGzo0O9pzUQy0Nufj56m43xYJCdra0KFiFrIt4UkaVEDthEbDk+jmN8nF3pNAXxOG22ySKBLptNkYzasjKl2yhyuRgZGlKkazraQD7PcblwWCwkRKiZSinSac4rJypag0wGe14x4x1vz+Uh1oWSeavRG010vfokscAbepErYX1Pq0FQAOjgQ5/+IGaz5Rg8MqQzGZr3NrPrlV2TFoTMlAVBczFcCdeNNkcNgTNGILu8FndVAwajEU9bExHvCI78ErLLZqq/5WY+2LRV3XyrV97EcMsOvF0tb9m/mMSrZ8zA6nLROTzMeCCgfOliGSgsKmLY76d7eFhZBOZWVysyIqbvsXgaZ5Ybt0mP3YDypYcjESKxmCIEYl6XfmTTsppMlBQUIOLBgb4+PB4PuS4X+W436VCIwcHBd0xq3nKil+EBJpMJEVHaHQ7ceXnKdSNrI/oMsTrMqK5WAtBwOo3TZuNIb69aGyFzsj7TTdZHCJsQBBFQytoExPoTjyv9hqNiriKf9UuuZ2L/c+Q4HKRjMSa8XqX5eKuWWz2HdDqlChX6eo+QTl3+ER3HYnJSgrC0dL5KtSxtyTVLuf8fvoxBL0z/jSaf7t25j39/6D8Z6R8hLS4GTYPwVteb9rmGwBWBwIrPfJuQZ4DWZ3+ibt7i/5Xop+jEKPFwgEw6RfmSDZRdtZ7gcA+9u18iPNJL5YobiQUm6N+9+TicZNNvnD8fTyymlPcRr5fyTIasBQsIxOMMer3KWiDnWr9woXrqbO7pZTiawplXTFFJhRLnCREwGIyk9QZCkTDpZEI9XcbHBhjrOcy82loqXC66OzrYs2eP2nyynU70qZRS60eO8ctfEQt5ASYpayhaEBEIynYsgtBgOKxcPtLEKlFWXo41O5vhiQl2HzpEbJo4TLkflOXB5aZx8XUMDA8Qmhgmx6KjdM5qsnNLCU142f/ac3iHOkgmYkp8WVVWhiGZJB2JMCY6i717Wfihv2a0dSeJSJCh5tcvABoX9pSnIQiTA7vjz2/nQ594H7v37Oe73/sP/L4AFVUl/Mv3HmB4aIT//e1/50hzO+g0gnBhl1I7u4bAxYPAunv/lS3/9Hnlz5337nvo2vaU+rctt4jurU/T8dKvyaQzSiCWTsYJjw2pwZfPX8XiFavJ1wcI6PW88Npr6ulSmjg9C91u9ZQpuQMkamDdokUqd8CrLa0MRFI0GG1E6xpxhAL4styU5WThjyWIpdJEkpMbTNQ/znhXKzNzHCyuKGOou5tXX34Zr4QbSp6XKRgvpGDw4lnJi3MkKuT+TeskwlfRQ8xpbFQRJx2jHna1tjDsD1NcPY/aq67DaHcRCI4yMTFElslAPJXGbHFQU1yOX+ckHgvj9Q7gHekhGY+RiIZw2R3MKi2iMi+b3FSMAztep/XgAWWBuNxzRJzCxTD/6G/jjk++m3lL5vL/fvBt7rltmLkVPh57pYpXD9fx4Q9/gF/8569ob25TLofVIlLUXAwX5y9KG5WGwHlEQBGE73/u6Bkbb/wwgzufw2Ayqc1dzPl2u501667Gkp1F1+AAB7q6KKlZQFF+ISZfj3IZiGI+kYGKknLqZszAZbPT0tOLJ5bCXlCOIzuX1JTy32bQYR7oxWexUhoJEMvNZzwSYbC9BWssSGNFKQmfj+7OTiWI1NqVhYAIYGfW1pIwGhn2eukancBWNJO80jpMJh2RoIegfwSDxYnJXUhZ9SKCEx4w6PD6hkmnEywodNI1ESSrJ4dCdzYTFUEsLiNl2S5yMilih4bo7Ohmb1srfWO9WM3gtJhwmk0qCZOEmTYfOKD0EZdCO6UFYcrDgBCEl157hc/d3ILDBgf7XNyxcpQfPV9Mf2wdY0eGaD/YrgiCRDF8USMIl8K6a2PUEDhnCJSVlXHNZ/+R1372XZUcSBTta9/9KVID+3G43bT29qrMftJK8vOZWVxMOB6ntbuH3Or5VM6YjT3tV7H4w+PjxNBjyc7H5shSlgBpJh2EAj500SBWo57S3Fz8nlGa9+wkE/ZRlOUk127HMzSkkYFzttKXT8dVVVUqskZaLJFCn1uBLxIjMNxLbUMjC1asYWBiGI9viN29vSpLpeSNaCgupSJVQnd4BG/KS7wpTUNJDUGnDlepAbszRWN5KbNc+XR0D9E2OsTmVw+SZZDrP4VOlyYQjZFKJtFHgng9o+p6vVgsEycnCCXzJwUIOnExvJunN/2Bn/z1If77lTx++JSBF/8VtjcF+d3+jYT6JmhrblNhjqs3rOML3/yyEiyKSlXUqY888gg//vGPL58rSZuJhoCGgEJAft91dXXkFRUxFo3S3N6uhGS5ubnc9pF72b35Fxzu71f+4Tkr34VppFll8TNmFdMe0oPJjJ4EVWU1mCwOxvx+9GYrgcgE8fAEkSkyYNBBNOAj6h0iHfazcs5c0uEQm//wLCH/BHaTgVynk0goxPDQpKtCaxoCZwuBvLw8yisr8UWjKjfEWDBIWUUFy6++miXz5uMfTtDU38ZI2MPO/n6Wz5uHIRajyGCjy1NEtslPpXkCY1YupeVlbG8foqrARE6WkwpbIUPBJK/4+jBGUuQmLYSHfJQUpBiM+oknkpiNegr0KY60NKvU2JIK+nwRiFMShOl0HXd+8t0c6umgxHqQ+z6eR9KQjy3dwwf/TsfS5eto3dZMW3PH0TwIX9QIwtm6LrV+NAQuGgRKSkpYs3atKL/oGhxk5+HDStmdL1n/JLlOJqMS54j7QNpHP3Yf6aEmgpE4hwNQt+oOxsd6CPpHSaaTpDJSUMhMJpNW/QQTaRzOPPLyKuhs3cpwZxPBwS7etWYNjkya115+hcOHW8mk0yq5kBIWxuMXNLHQRbM42kDOOwLyACyRGPKSB2IJey2vqFBEorC8miXXv4dyt52OiTTBwTYG23ezIxBQJHYwEMBhslJpbeC6uQsZ4TCPvbZVPZEbdXo+VriedUsbaTP4aEsG2DM8zsICNwucBexpjtAfH2QgMY7VZGBJRSGVHS20Nu1luL+fkcFB+pJJfGcJkZMShCUl8zOiARHX3p2fvJ33f/QO/vr+B6gri7NsoZv/9WgPS5Yu4V23bOR/ffvfNYJwlhZD60ZD4HwjILHoEv4nfnzRBUgI2fz586mdNQudw8GOlhZ6p9wBEhkgdQSKc3I40N1NJBpVxODqq65SKnBJN7y/rY2wuBTuvBdP/xE8nl6V/762upGR4TYMRhP+UJBUIkp+XikOs5Pew/s4tPNZFs+soTIvj/aWFuWnFZ+t1jQELgUETPbJ39HsGz5KcKRXuSZGD+1SQ5dw3I233cb+UR/klFM2awlX1VZTaocJbz+HRvqwGIwUu93MLC2ladTLxEQQx9PbqfCMkjJG6SnMZdxpQddQT1lpNYsKixgZmyD9x2ewD/fijSaw68z4b7+LpClCQBKD6fS4MybS/hE6Olvpa++i7cgh0qQwG/QqlFeqh0oWz1gsqiJ03px46vQuBmDtrWv50lfvwev18dLLW/F6/cycWcW6NSs4eKCVf3vwP+nvGpiyIKxDsyBcCpezNsYrDQHJeJdfUIDVbscfjTLi9aqwsUWLFqn3xyIRWnt6FEmQJmRA3AFCCCSJUP/oqLIUzKqsVAShf2yMtqmSuCqzXSZDbLpUsSS2kcx3RhPZJbOwZ+VSXlyKLh7BF4jS1boHQ2CA8oICEn6/ypx4qRT8udKuG22+b42AxelGaj04covpeu0ZktEw2WU1HHnhF298Wcp319SQcmVjKypnwewFOPIqac1xkLJkyHmtD50+yrg1xgyLk7x8O7PM2Ri6DAwnwuyzjWDOgD3bREOykL7hCCmTiaJkHx5LhGyvH0dBDsmifPJsTlLY6PYnyO0FX1YYXaGJOc4yTFY9ffEJnGY9+SMmPH4PnokhOsc76OvuoL97DKMpjE1qiGRn8+A3vqFChyW9tFhKVNFGsSBMz8yZ42Tp2quw2iWb1XR2BEglU/R39nNo/xHiscSUBmGNJlJ86+tJO0JD4JwiIO4AUWsnzWaVfKZ3ZASHEIT8fArz8xVBkPemiwZJcpnZlZU4HQ66BgY40tenkgtJ4pmcrCylDZB+hCAo8z4ociHfl/9LCtxjCcLC2bMptNvp6eykvaMDXTpNcV6eKkA0NDiobjZa0xC4HBCQ3B4F9YsxmMyYrHbikTBFc5bR+coTuIoqyK9dQDqTwusfJpnlVOGW0Uwci8WBzurA4yylvjWJN36QpC2N1xrDmjQQNiQwhr2kwgG8kRhkUrhNRvLtNuZSwpzBClpL+umyjDDo9xNNJlUFzlKHg4osN4ZBHyM2Jy1D3YSI4na5mFtaRkinZzyQoNuTQDcQpLbYgT1PxpWHy2RgV2sPQxM9hP2woGgGn3nfemTXPyVBUIuok/Lm+slA5KkmbCItjsRj/r96o0YQLoeLXpvDpYGAZJxbuHAh1TNnkrBYeHXvXlUPQBICFeXmYjSblQlREgiFpnLjS7rgm1euVL7TA21tqtCQ/LbtFotKCiSCQhEaChmQtMLSxO0gRYfEKjAdfy6/fDFHLpo9mxWzZ3P44EGa9u1jWMiIzYZJrycWjRKNRjWdwKVxOWmj/BMQMJgsLPnY3/L6//3m0W8veN8XaPrdf2CqqMaUk0fuzHk48ovJy68iEgsSDnkxmW1YrC78IT+2cJqwZdJyJwnEBva/SjweIW3QkTGZZPM9bmQbu+dht+Tz8oxexiNtRIuKSNntGBMJFuj1OH0+2trbictvMCl6n8l6SVcvXEhtdTV2u4PWwVGaerswGXQqkZiuII/52U4lKvYNDtLp8WLSG/nN39yL8XQWhGkKMF2Z4djCTWpCR8tCZ1i9UcIctSiGP+E6076iIXAUgWkBlIj35El9umjQu971LtzFxfR5vWxrblZpZ6ebJA0Sk72KGkgkVCEbee+apUuxm81sb2lRJYhlU5eNXkiBbPxC9MUKkO1wqK48fv+kKVGnU0WIhDSIGDARjyuXw7oFCzAnErzw/PN0d3drq6YhcEUjkFu7gMjYEBHvsEqyVXfd+2nb/0cMRcUqlXhezTylTTAZLRiNZqIxqdiZxmbLwmy24fMNK/yS8Sj+/nY87U1KiHvSJkTBakUnxN1sVuc72uTfOh0WoxGdz0dkbEyJCKW65pKGBhpnzCAZDqtQzjGfDyk5pYiDiH1jMVWMLCahm+XlHPJ41H2kY2yMn997CoJwbNHRY0s7v5kgTJOEyTBHjSBc0b8WbfJvGwEJFczNy5PqNUoXIGFUUhJZXAQ5+fn0jY+rPPTT1fFEGyDZBKXQkFgGpr8jJYZrKytVVsHdR44ozYA0cRUIGZAKhkI0ZOPPsttxORyMTEwoi4G8JyZI+W48GqWvtxeX3a4KF1VLYpemJlV18UppkpFPbqTyt5hWJcOillXxSln9tzfPDf/fI7zw4N1q486tm8+Ku75K89bfkVNdrwo8ySO0kHKL1akM8JLBUaxwuTlljI33EQv6SIT9DDVvJ5X4E0W54vYT4iCkQSqQjo2REX3Qn1gwTK77mpoaiouLuf/++0+mQVgwZZQ4vn7jsfUd3wyj/IA0C8Lbu7i0o68cBKRqndQTKCouJphOq0qBUm2wqLCQgtw5JFNlTIQ8jEWbSWYmUwsLGRDf/eyqKgZiMXqPHGHU5yMvO5vywkL1hNAzNKTM/9KEJIj1QPQAE1PvietACIK8P13mWKre1VdUEA+FONTaSjgUojAnR4mSoqHQFUUGBDe5YVdKeFphoSoUJKpzuTnK31u3bqW5ufmtywpfOZeyNtMpBErmryGTnUVguJui+avIrpyF2e7EZLKSTMbVNSNFDi2SmdFsVWmcR0e7lQXBarLT0/oagaFuor6xs4OpVB0dGQFJTX4qK8TbPNNJoxgWlyzITFoKMpPhT9fejsFiU/HKUtmKFx7HcNMHyPjHMex+BWPAp25KazQXw9uEXzv8ckRA/PvLV6ygfMYMPKEQm3buVJu0w5GHkUqcYl60DzPo7VdCv3TKTCZlo6wwl7WLZlI/o5LhcJgX2toYjERUGVtxJoS8XiIDAxAI4HY4lPlfXkNSQwCUjkC5DUBpD9R7VivXLFqEOZXi4JQlQKwK4lJIS7y0z0di6tjLcS3OZE533HGHIgPy5KS0Vse0TZs20dbWdibdaMdcSQhkZbH6Uw/gHx9E53KRNuhJpRInWJr0eiMWiw23uwTvxKByNcTGRziy8zlVtOxsVYfMeDwgDwVnOTT4tARBbjSDFXW8+tsfkO+aFCwJ2573wG9JPPUowSUbKdr1Ag7PoHqaWbVxLV/SNAhX0s/kipqrXPtKpKfTKT+h/D4KCwq4+ZZbKKqqouPVVxk7eBB9MoUxk+GgpRhbXQntQz2qzKwqOjTl9xMXwXuvvRazycRrTU0MJJOY8vPplURDcp7MZB6SdNpErb6MRdnlbJujUzHT9uZm9FPRAdMuPyHo4irYuGQJdcXFHG5q4vnnn9eefM/gCv3MZz5zyqM0gnAGAF4ph8hv32JBV1mpfqPXffQb9LftwR8cw5ZTiMlmV6K8DNMagslfZ2lZPYMDhynIq2TfH36M39N/9hCT+8ngoHpoOBft5ImSShdMyh6B3roFtD/9b0fJwTRJePf3f0vLb3+Ba3wYq5RNnXIxaAThXCyT1uf5RGC63Gx2djbxKVOdEIO5DQ3MX7qUSAb+8FoL7d0TmOxBMvoYBdnZ1FmtlFqtOEbTONMJzCsbCLvdqg/lEtDpCIRCNHd0qLLDE74Q3kCKEVs+EUsYvTFJrvgybTYWGEppG6xhf/0hTIeOYDLrFMkw6/X09/YSDYeZlUpRV1JCOhjkpZdeIjRV9fB8YnWpn0usPXfffbdGEC71hTyX4xffvtmMrqgIpsJ8jz2dyWKnuLqRktpFqnx4X9tuMJlwl87Enp1HvruM3tbXObLrOSVGPCtNnh6CQTLj4zAVoXRW+n1TJ6e0IEwfN1B/Fa1P/Cv/tKWTSrcNo8VCNAkFyf38avMQ+378I8yhgDKtiAZBIwjnYpm0Ps8VAtPagNmzZ5OVna2KCI1ISJ/DQW7+DHxhE3YcOFwpzFkxPPEoXp8fc0cJllAZpvn9mLPDxJNJWgcHcepMrJuYi7vAjs84xOGxQ/gyeswRA27cmAy5TOgDDOX60GVMLNAVYjKU0endQcoO1akC8t0xzAvryZ8xgye7ujhw4AC3S54CYHRoiL62NnSJBM1798JUauNzhc/l3q8IQm+77bYTpjk4OMjIyIgq6TsuN2GtXXkIWCwqtbjObgeb7W3N32JzkV8+C3dhBSM9hxjtbXlb3z/twbEYGbEYSKTCOW4nJQjXVc7P3FEW49f9ZlpnL6fpV/9M4TdfYG1NLsXDe5h7/XuZ7RxjYtDHP3/121hH+jWCcI4XSuv+nSMgZGDDhg1kFxSokD9R+5sKCsjNz6eoqAizMRdScVK6sBL+2YeymXOgjoEZXtpdvWSVZlhYMwODuA9aBvH6QqSyMtjsJhVWOOz3Y8ZAvsdFrimDhQkGTTH8RjPGuA4bdgx6BxFdFH+BnrQuQ6Vez+r6BpyvbsU3ez6RkQTjJi9jsSQWSwV7XBMUZjLMTCaxNjUxEghQv3YtAaORZzZvZlldHYf372eop+edA3QF9tDY2Mjq1atVvoaWlhaGh6Wsb1ppMyS745tTz16BEF15UxZikJMzGU4o/76YmmQ0FM3RWdYanGqKJyUIq8vmZ2qdKZr9RhKrrmHLo//I3IdfYXmlm1jHbjzjXurKC7lxWSPfu/8B6BNlpmZBuJiuoyt9LHPmzGHFypXklJSoHACvHzyoVPxiUhZ3gYj5RMkfHcrG3b8GT9luevP6VNiOuBprCwq4ft5Cck1Wnj7YxIB3jCV1teRlZVGXl0f/xARDgYCKFpCsgdG4FZ/fiid6CJIRanp7qU6n+ZmkLC0vpzQ/n4ayMlY1NNA/OEhOXh6b9u3jhQMHGA0EsCZ0XNe1kLxAFq7PWNg80I2l20IyO0mLfZSo10uivh63CBCbmpRLz2Qw8N7FixkfGqIoP5+23bt5cdOmK33p39b8xZ0keSdU4rd0WiMEbwu9y+xg+eEXFyvR4XE5Bi6GaYrWQCIUJAupuBfOU3tLF0N63QZe/NG3afyn144b0txCBx+bpefhr/w96Z5OFfEgIsV7NZHieVq6K+80KuOf3Y7UFRC/figcVuF7S5YsUQWGJBZ4y759dA8NKXX/dCIhp82mEohIE2Ig0TgWs1kVFfKHQuTl57P0qqu4Zdkypf7f19FB99gY7YPDeGIR9FYrEqGcGHTiTBaSjNqxlXSTU2EkMXs2gWiUhu5uvOEwnokJIsEgyysr2bhwIf5AgD6fj9+JbqC2Fl8kgnXHDizZ2SQMBvRSCrm4WFkCWroH6egYxmwxgjNNQ0UFndJnOMyN3jmU+V3syXTw28VpkqVlVL68B0MwjM+VVn7IG+bOxZFOM9bTw5F9+5AZS04DsW5oTUNAQ+AkCEjUitwbCgrQOcWJd5E10UBJ+GKn7LHnv70lQcisv54Xf/QAc/9l59HRzStycPPsPApSHr5z37eOEgRNg3D+F/ByPeO0NkAKCY36/SreX7TBkktgdn09nkiE3oEBFSYom/p0KmEJ4ZPMgJLoR7IC1pWXY7NYGPR46Pd4ELIwZ8YMFfffNTTEgfZ2BaFFkuOUlDA+XoolK0gwPYbD6MCeY8NSWsqoTodRxIVi4i8poSgrC8/ICB3t7Tj0epbNmkWB3c7B5malGTi2+NCG669ne2cnzrw8BqdCEuuXLWOPwYA7GMQYCBBOJHBHHSzO1DCvtIL+8lFe6T6k3r9j6VKaPB6VNrUyK4utra3oYmkqfYVkdFZaF+gxh/0E+vom52IwsLy2ltrcXH712GPkWyyMDw9rvvTL9ceizevtIyDWguzsSfGh/P2m8Na33+E5+EYiQWZiYtJqcIFI/lsShER9I198+CEOjkSOhnjNyrdTk2fjqU1b2fz978PYqCrWJHkQNJHiObhQLvMupYiQ1BTIysuje3iY3YcOqXoCIiCTLIPjwSDhcFhlGRT3gFgGxMQuVgKJ808mkypj4KL6epUL4EhPD4f7+tTnVcXFylow6vWqrIPSbMcWHRJLRDSqSIWkJZ3wFWIuhIgpoqxic0tLmVtejl/GtWuXEq5VFxSQL2GLY2P09fWpMqlv1aRYksPtpraxke3d3ZQVFjJmt5M0GtHHYkSlPOuiRcoXvuL1BNUTLloNvfSXjlOS5yYkCZDSaapLSlg9axb//swzTPh8GOJJzDoDRoeFwNT81FjEDJlKYdTpKM3OZsLjIc9uV66TPzz33FsNV/tcQ+DyRECIgduNTkSHYjE4Nl3xRTTjjOQ0EHHsGdxbzuWwT0oQripZmJms26gjbTCgy3VjEL/MdMEm+TSZID3uVfGXkzHhGkE4lwt1ufQt0QLLli0jt7SU7QcPsuvQIXWlWW025QuWaACHxaI27HgqhWeq8t90xUCJLK4pKWFJYyO5Tidb9u6ltXtSAyOWApU1MB4/WnpYyIAUKJImG6yQDSEZkjNgch/NKLIhbXZ5uepXqhJseeklpWCXokNWk4lUMqmIgJCRd9LsDocqhnTLe97Diy0t2AsKGBfft2IutsnaCKEkJSVVxIfiOL1x2nKHJk8Zj2MMhcgym5kIhbhh+XI6+vpo7eo66ZBELyGVGKebYCquFqvRyHXz5/P8k0/imUrJ/E7mpH1XQ+CSQCArC11BweQ+dozFQETHi0IhKqJRxk0mdjidNIbD7HI6SV0AApERS6AQg7OUDfGdrM0pCIJkUnwjsXJG/p2ZJFtCBCY/U7dX9aAi76laDJoG4Z2sxSX7XdmUxSUgr0Q6PVncJ5Vi5YoVbNi4EX88ztPbttE1OKg2wGM35bKCAhxmM4Pj40QTCbXJS4uK6yCZVC6Ca5YsURvb8zt3HrcZCmmQi1I2fulTigtlS0jSVBMXgzQhA2JFUKRDyEMsRpbNxvUrV1LpdrN50yb27dt33jMKLlm6lGhWFqncXHrFzTCdO30q0blu9lU0GqpJvPIi3ekjROIn5moX8nP14sW83tysNBWisRCCNN3EiiI5Gvzh8FE3zLEX2tWLFpGVTPLUk09iM5kInKOEK5fsxa0N/NJFQDYsuUc4HOiKi09pLRCC0BCJENHrMUoadKlDEonQbrWSPl8EQX7zks9AhIjnMK/B213M0xCEaQogPECk3cIEJJPcFDE45kzy/CX5pTWC8Hbhv/SOlyiAsrIycnJzVSig+PbNViuzZs2itq6O4VCItu5u9eQqG7JsTNLEBSAmfNELiMXJaDIpZb/41ce8XsYDAVUt8KrZs1VRIdEGiEZgukn5YSEEEokgxEE2falVIOORSAL5znQrzM2lPD+fYCBArxQtSaWYO3MmNYWFtB0+rCwDF9NGeP2ttxK3WmlPJOgfGSEjqY/flE+9saaGAx0dp71gVjQ24gsGldVFCJMIJk/WrGJp0ekUoZhuRTk5LKiuZtNzz1Gck6Mqvw0dg/+ld6VqI76iERCroc2Gzu2erHx4MTcpsCSWUslrcBFYDY6F6pQE4Tg8jxKEqdrOJwF7MsxxjaZBuJgvxLc5ttzcXObNm4c7P5/OwUGa2tsxm81KKFhQWKjEg33Dw8qnLyRRCINcB7KRCyGQl5jCZ5SUUFtRocz+7T09DIyNqYJD4k8Xq8GQx8PoMZuZbPzy5CubfmDKByfaAnlP+pDXdBMLxLyaGhLhsCqqIwluxL9fU1yMb2KC9vb2SyLDoNlioayuDmtWFmGDgR55kjhNk7KsbVOiYp0DZwAAIABJREFUxDcfVpKfr9ZB3CFSkXHbgQPHHSK6DSEIQtRsVutRN870QbJeSXHFSIRFeTnPPP3027xytMM1BC4QAmJBdDonkxtdbDkMTgaJkHl5GLhILXen1CAon8JUm3Q2HFPLcZowHD1iMjPz6g0aQbhAP4t3fFoJExQy4MjLUyLBfW1tqo55VlaWEgyKkC8QDlNVWKj+FsuAuBHEny/x+NLkyX5ZfT3L5s1jIhDgpV276B0dVRoAh82mfP0Smig++OmW43Sq8sVCFESgKE2IgPSrNrljLANCBq5fvhxdNKoEg3v27EGehsWtkBYyEQgokd+l3Fwul/J7Lly8mHh2NrtaTp6BTfCMRKMIfrI2gt+bm9R5kKgNedXPmMGW3buPhn7KsULkVA6AdFoRNrHETIeGyudCJFxWKxNeLzcuXUr7/v00NTVdyvBqY79cEZB7kOQwEMvBSdIhn4tpl8ZiWDIZqmIx+sxmkjodjlSKZoeomN6iiVtURIjyYHSBIhTeaojy+aktCFMkwGLUY9DrqJlZzNzGSvbs6uAjd1/LP/79LxWHiCfTJJUQYdLFoEUxnAns5+cY2WRlA5CXbM4SDy9/r127lptvvpmJeJzfbtnCkd7eoxvydN17Eex5p1htMBpVm/+0UFA2bTnuxpUrWbdgAYNjY/z6xRcZOEbwJnRSbfJTQkCZcXVREU6rVeUL6H+TOE5IgWgZRE+QTCRUBUMR4dWXlbFr+3aeeOKJ8wPaRXaW6zZupCeRoGt4mIwkeDrFzWRmSQntg4OTloFjMH/zdO65805+9cc/Mu73T1Z+fFPSFbHqSO4GVUJ6iqQd28e1S5awsLSU73//+xj1emWleHMfFxmE2nAuVwTE3y0PExUVF8SNYEqnucbnIzeZZEBKEOj17HI43lrYKPdPyWtwEROD6Uvm5ASheGFGNAduU5Lv3lJOfXEWeudkPuqMz49hRiWp3n4SmQz/uqmL3zb5Saa1KIYL+TsU07+kC5ZwOnm6F5O9zW5HMgouXbaMwwMDtHR0qE1fNnjZiGXTlyabdn52NsFYTPmwZXPOycpSSYS8fr/adBpra7lq1iyVS+C1/fsZnYoumH4SFY2A9Dtt/heXQL70EQ4rN8OxTc6Vm5VFNBJhZHhYRQgsbWhgZmkpQ729/OEPf7iQUKLXT1rP0ulpMe4FHY46uaQDjtvt9IiYM5NRa/PmJoSsODdXhYOKyFMsPCdrIgRd0tCgXEaybqILEcJwbBOrj3wm14vklPC96XxyjayeO5edr75KOhZDvLxK76E1DYFzjYBYC0RfIGGKWVkXbajiCTCI/ko0WZeQtucUBGGBukOuLYrx5foEOVa92CMx1C/FMGMe8Rd/LrdPpRDdNprmgW0ZAjFYo2kQzvVPQ/Xvdrupr6/HlZPD0Pi4utE77HaVQEiyAg5NTNAzMKBU/akpM71sGvKULiZp2RBkM5fPZpSWqkqDw14vbVP5/MuLipRgUPruHRo6bnMQK0K2sORUCt+UAFFcDFl2uyIc05qBaSBkw5KnUlMmQ2trK6MjI9SUllJVUqLi9kUwKHnvL2QTQmAwZI6GRMv/dTqxuOiJx/UXcmjHnVssQXWzZuFLJimprsYbjx8n5Dz2YNncxV0g3xEtyLGCxGOPk6RRoSmdh1gCesVS8aYZl+TmqiiTU7X66mpsmQzd7e3MKi1l9/btKlJEaxoCZxUBcR1IuL3Vik6IwaXUolEyHg/IPfM8pkp+pxCdWoOQgWtLY3yxPkm2RY8uKxfze76EsX4Z0cceJHVkhyIIu8bT/N3LKfxRjSC808U42ffFArBq1SoMNhuvHzhAc2cnBpMJSS4k2f9k45ckQG6nUz3pSTSAvKdCD02moznm5ely3aJFVBQWqpv9M1u3KsLgdrlUdIFsEuM+33FPnUIwxHQtG79YDsQ6oEIGTSblqjhWLChjrywsZP7s2ZS4XOzcsYPmAweUPkHOIaFEHo/nohAMGgxpjMY3CMFkNNTJ85unUjqSSXldPERBsC4uLiah01FZW0vYauXwKYo1yXoJSZAoBbEqTId+vvlay55KMyuWgwV1dTyzbdspL2fRgsi6HhtlIgeLZSLP5WJoYIC18+fj6exk//795+JnofV5pSGQlzdpMZCIhIsx6+Fp1iMj2iohBsdory6V5TulBUFEideVC0FIk23RYWhYTmbZzYS3P0vuB+4j/N27lFVh11iab7yUUARh1cY1Wi2GP3HlRZwm2oBrrrkGfzLJb156ieaOjsmkPlM/CNmU5SlvXnW1EqXJpi2phqfbtIy0MDubm9asURt2x8AAj7/4IpFYTG3u0+K/6eRAxw53eX09Yz4ffR7PUdGbHC/tzX5mt8PBzWvXsrimhuefe45tW7cqS4AcL6/p3AR/Ihxn9WtiHTCZUuKu/JObkIR4XIr6/MldnJMvTq/Pxz/xCV7q6FDRJidrb2QuOf0wprUjNWVlLJw9m6dfffUE64PqS6dTpFQiWIRwvvn6UFqITIaFs2YxJzf3/2fvPeDzus4zz//Xe0OvBEAQBCvYKVKFkqjebSdyosRxS/E6m51kx5lJMiXjZLzrZJOMk5lNvJm1bCuxXCI5smxZVu8Sey8giEb03r7e7/ze830fCUIACFIkUcSjH34koVvPvfec57zv8z4P33vqqWty/zcOusR7QFwVRdzoeukRXM3uFK5BRwdMQyC+mqe5lseahaQId9cY+P0tdjwrGzD99l+jJWLokgk0sxXG+0n88M840t7Pf35xlIlISpU53jBruvhxSZ1+fn6+UgoU9r/k+IUnsGHDBu64807aBwd55+BBFc7PEfUkAiBN1flnGbkSLpa0gNvpVKx0YZwHw2Ek/Ltx1SoVGZDogrDec/vnrkRWhZJWUETFbJ2tlAb6g0EGxVxoErKVgd1ptyseQjwWY2xsDL0oja1ahQCIzvZ23nnnHWWLu5CapARyY4j8aTKlVdrgajYBB9GogASZ/K7mka/OsQRI3rF7NyOaRr/fj1+qG2ZYtcjkLiRDiSjIyl8A5EztS5/4hAKsygY5FFJaFFNbRWEhUZHDDoexJJMI+0HSStJNAUFmBgN3bdpE+8mTDPT2YhBVy1nSFlenR24cZVH2gJQnCsegoEC9N4uuCfk3p2uwCIiIs/XvrByEu2qM/MFWOzaXC+1zXyO+/xfoIxMk88ux16xF/8LfcWQgwn95cZiJSPpjz0EQkmB5RQV2l0uJ1DSfO0eew8EtmzfjKSnh1OAgXS0thIxGVfonE3ZOSljy+kLsk9I0KfeTfy+vqEBW6uJO2D04qPZZUVVFVXExjefOca639yJ1PAETEvqV40jlQW5ykMFbgImQ1qZOGEIWlFp5UTMUPsBAX5/iB4gwz/jIiDIeGlqAcrySEshwBTKvt4CBqw0IZvpwcikHST8s1CakxuahIXwlJYwnEgzOMBlLBKLM62V0ZARXKoU9lVLlWpK+mDAaFTNbmrx7q6uraersRHQWhNMg7+TkViRKmCYTy/1+xequMxgIBYMcdLkyICHb6quqsCaTNJ0+TXVREd3t7QtKuGqhPtMlfV3yIYt2gaQQ8vLQXadSxavep5EImlR/TfZFueonuX4HnBYgbCoRqWVYVaDx57d7KfGY0VetIdV9Fp0eUkYz5rJaUn2t/OvpMb75rp9wQqoYPj4RBFEO3LZtm+IGyKpdBk6X253hBthsaqUV6Otjh9Op2PpNNhsDkQiFiQR+h0MxxCUEK9sVer3cumGDAgUn2to4dOaMGpBLCgpUhYEQCAVwTNYEEDAgngXS1HHCYRWByIkUCRDIVSnkXicBA7dv2oTXZuP4sWMcPHhQ8RYkpyx+A2I8JDyBhdhyAEAiBdIycurzt4yXQIxUOcRiC3uFU1FZqWylt+3cydvTRJekLz3JJAWJBM50Wr2f5ro62js6lNRsfJp8r5Ba5f2SqJVEEyRypbwwsp4STtGkMJnwmUzoRSvD7aZ3GlVHAcPFHg/DAwPs3rKF/tZW9U7eaB+zHrBY0OXnK/IhJtPivHmJlokSooCDRcg1mKnTZ44giLqyhLnNCfJsoo6X/YX8NuvJEEnoGA3riSYytddLMcXgdDrZuXMn9913HyPhMK/s28fJlhZVky4kQVnCir6/TMbrqqvVJN/c06NC97L2skg+XtPUikz+FIW/u3fsIM/j4b3Dh3nvxAk1qQtgkBCxpAKmkv9y1Qe5hyglhrlcce53UzkFkoa4b8cONtTWcvLoUV579VUleJOT2c15EizUrzHDG0hfBAIWYhpSUg0CEhZyNEGiBDabTfFKHn7sMXoTCQVCc03eU0kjKeAl9AKjUUWhPB6PihJMBqaT3xeZ4CXXctPatUjlyw+mKU/NGWPJ+1mcFcSS9NjUJqJMqURCVbxsr67m+WefnffqloX6bSyZ6xJgUF6eQfuLMZWQexBSvijRNCkFXoi5x4/wwsxYxTCVdJRTU8xAgYzO4mQ7p8UGEITZrVQCTSaVgw9HIspaWJwGd91+Oy39/by2dy+dAwPnlf0kB5urLd9YW6sMhETAZmB8XJkBibqdvCASfhXDnFXLlnFTQ4PK6e85epQjzc3nnQNzz0wqAqTJAKqcAnU6xQTPtRFxy5zy0knOWCkTZtUDRUfg9o0b2bJqFd1tbbz++uvKlnihN5nwcxEB+dNkun5pgqvdN4mEjkRi4ZEYp7tPu93O7ffcw8HOTjSjUaWjJhs8TbePcFMkaiURg+kIrrKPWGuvXb6cNw8dUjwZqaiZTtipyOdT76682wKOpxNskuP97i//MgfeeouTJ04o22r/PJfDXu135mN5PAECZnOGXzDJWG1R9oWEEQUczOCmuijvacpFz5hiuLDdJIll9csL/879TSm3KbvnhZliEJJgSWkpNodDmQi19/bidrlU+WBJWRlnu7s50dysJn9ZOUlTSnJiQ2w2kydlenq9CqvK6l0GONEJkIGtd3hYhf8l3CqsbwEIIlPc2d9/nhCY60shhskAK6uqHJGwsrDwvEWxHDtHIpy8j3gLWA0GlQIQHYH6ykoaVq4k4vezd+/eBUcYnOnDyPAGMvBSwIHRKBGCpfAZZe5BUg4CFBZaSeRsPfz4449zQgSObDb6JiamFWDKfQfy3g+MjiqejBBuZ2u/es89CihIiat8C9ORICUyJhE3EX2SiJoce7omoCPfbObdd96hYflyRZS9QXBcZN+NLIQk4urxoJuLFPFCvz3RNZC02RIHrVcAED785BYSQBBPgRUrVqC3WDjR0kJrT49yHiwVgOB0KlJgW0+PyrmLop+0npERtUqX30moU5qsfoTwV11WxqaVKwnFYspquL2rS6nV1UgdejqteAYdfr9ieOcIXbK/cAiEJS4RihwRUUSKFEDQ66cdYCUEW1ddrbQHRENAdO/t4p5YXIzNYFBKdVI9IOdaDE30BmTBkHMAnW/ewPXqs8VAYpzcF2LTvXzFCsUTuPfBB3n9yJHzMtvT9ZnwVgQgyDuec9ecbjsB20J4FZLtbRs3KmA+k15DSX4+/SMj6psTAD2VP5M7vqh5drS1qW9EFwqxdxa9huv1vG+cZ5YekI9eSIcSXZWfhZgnvJwHKFwDUR0VEuLHQAxsDgBhut67OKpwASDcxr/96r/NOPqJQI7Xy3e/+12eugY10A6HQ5EEd+/ezWg4zFuHDnG6vV0RBCXfKktTEf+RlUue06nEfWRgk5RATvAnV0Io/5b/L0Dgjq1bVYrg9X37ON3RoSIIsp+s7OX3Yga0QkKyej3OZJLCZJKO/HwaxKmwpoZT2XCTRBxymgDTlYVJCeOtmzZxx8aNHDpwgDfefJOJsTEFUIQnIOzvUCi0aMCAvCU53sCFcsMLVQaX8w0uhW0lK5RI6NXPYmri0ilmUZKCONrdzbkZdBXU8xbvDE1jRVmZUtCUUt2ZmhBkJd1w24YNKoq399SpaT0ccroOIuwkP8daW6c9pIh7iTWuWGP/yh138MoLL9AhNec32sLpgaKiTLRAogeLHRhke1XpGggJcZEs0j7qyzB3gKA3YLRmEKCWTpGMZEKMGaiQqXe+GikGARbiKyBOgpKTF4JUQWEh999/P7ffcQdHW1p48d13ae3tzYgIZcl/uTy96P8LH0Am4Pb+fgUGJCQqYED5D0jOSNO4e9s27ty2TUnLig7ByWnySHJvQhyU7XN517UWCytsNposFjr7+mgIhc7zMfa6XKo/1D2YTOrvIjlrMRjYvm4dD+7cSdvZs8proKWl5aM+u3nbP/et6/XpRc0buB4dKONINGpctNylr//FX/DNn/1M8WwEJE9NgU3Xh+eFvWYZRHdt3Mjq5ct58vnn1feS+y6nHk/4NpLiE2+RZPZ4M0XQvvSpT9Fz+jQvvvii+t5Fx2OxRNuux7t4Xc4hIUOvN1OVsERAgXy8mqScxUPhYwIMcu/KnABCoqgaQ00D1Xd/ApM7j9jgOVp+8s+Yh86h949k3ePS3HqvRBC+MucIgkQYCgsLcbhcjIyP0z00RHl5uSIKCjdAVvCiJaBIgCbTeTJTLvwoIEAGD1mRCNFKBoVCn0+VDcpqv2twUMnLSgmh1PXLCmffiRPT6sorprfU4IIiLQooMBuN5LvdavASQtV0TciCUvYlIECIgSPDw6yorGTH2rVKDObdd99VHgSLtU3WGhAiofAGFjPheL6eg0QSJPWwkAyg5toXkoKQMsnuUAi710vjDLLOuePJ9ydNjLoEwM8mwiQaHJLGO3j6tCq3FWfRqVU8ueMW5+WpKIRwFuT7nMmMqqywkC1ib/3mm0pnoaera0Fqecy1/xf8dpJGyJYo6oqLlw4wkI6XBaVExoRrsMQqFObyXl0SIMRKVhC+60ukfBUUu0wsyzNzvD8K6QTGxrewvPcMuuA4GiKUNDNAWL16NWvXriWWTnO6tVXpuEs4s7qqCm9+vlrJS4pAwpayarCbzQz5/WogEDKTKoPKuhDKBC7mQNXl5WrilzDo6bY2BQaqysoUgVD0BRpFgGUGMpUIEMm5xGlQVkUykEkqQc4n4dLpLGwFDGypr1fchbbWVs42NWE2GJSAjHAF2tvbaZ0hJDqXh7EQtpE0wQVQIKmi+dUbWAh9crWuYaH6Osz1/iR1t3XbNj44fZo77rqLEx0dygdkpibfi3xX8t3KnwLiZ2qSMpAqHBkDBGCLAZkofU7XBMjnvEDE+EvkxGdq9+7YQcuZM1g1DbfRqDxCEotY+nauz+q6bSf+CA5HxidhsYobzdBZChhI6eIlCLnXra/n4USzAgRJHPgf/RNSVRvRGXQ4zHo8NiN//VAJn/9xL/pUFNNPv4Hh7AF16dPpIPzLiy/yrWefVSJCebIC0DRlLSsTt0z8deXlihAlugEyUctKXn4vBL+cBLCs4m/duJGGujoONTVx6NSpjA2tw6HYz4GsLfFMKw9REpRwv4QppRZcmkQk5Fyyz3RgQNIUD+zYweqqKs6eOcPrb7xBMBBQ0QkZoMR3YFzCntPIzs7Dc7ziUwqRUMoLpeXKDpdKZPCKO+Ua7iiLEJFqjkYldbVwlRhn6wL5bkQx1GizcfNdd/HM22/PqJUgx5HvWe5UInzC6REC8ExNtinwepUnyBcfe0xF/I40Nc0KLITjIxyHwbGxaWWg5XqlgsgiOiOhEJ+9/35+8fOfL+rI3jV8Red2aKcTXV5ehl+wxIAByWTGeVHIiB/DqMHkF2AGgLBRzRjRwkqiD/8heEtUOZpOnzEOOvjlam76/zvUv7X9P8H8xg8gEZuWg/DUCy8gP2IgJNbCkWiUzsFBtXLPTEoXBkmZqGUC/sz991O3bBn7Gxt5/9AhmmdZIUx9m+UcLotFacz3irLVDO38ebN68fdu26bMhwY6Onj55Zc5dOjQ3D6URbaVAAKzeWmVFy6yR3D+csVKerGRGGfq6//wp3/Kj955R/F+pgPck/cTqWYJ/e85ffqSj06iib92332qVPL1gwfVsWc7vhiZDQeD9F1CEVR0Gr7wyCNMdHXx1He/e97E7JIX9HHfQKyWS0ogWw6+5LpDosfd3fPKNZBIXSTrxzPf/TtjBEEQQnzVTaTu/h30Dg96vQ6zSce/2ZHPNw+Nk0hrCiCk2g6h++HfoEUC06YYcgBBSqI8LpcK44svgKD9Qo+H27dsUQIr4i3w/tGj5/UHJneMgBJZtUvOUSILOQdDYU9LqFEiA5IWmK5JqZXX7VaSxVI7LT+ieHjr5s2qTOW9995TlrSXGtTm+0Fdzvkn8wbk70tNb+By+mKhb7vYSiJn68+KigpV/fDTPXsoKS9X5Y3TVfDkjiHRAkkdhiSaKL4Pl5CovXn9elXy+/KePUooTHQTZiIhFkmkz2pVQmeSSpxJDVKuRcafR3bs4MUXXiAhEukTE8qk7EbL9kAuSlBSgi7L01pyfSO8M1m0zpPAnCxYRbV33bp1HD16dGEDhI0lG1QEIVlcieOJ/4gpv0SBAadFj91sYCyWSQWIL8PEW8+S+MX3lNPjdByE5954g//5k58o06HaykpF6BPOgIQNpxs85GNWTnMGUaXTVOpBBhJJMwjxULQKBmcQp5BzVJSUIHnJc+3tNDc34zSblbZAqderzIiEMCgyw0up5XgDck8SkJn876V0n0v5XiSaIByFxUhinO65PPapT3Hw7FncxcWcE7LwLN+c0h8R/5JgUEUQJX04U7owN6GLT0lrdzfb167l7UOHLjItm3o9skiQRYUIPUl6cyawINGKHevW0dPeTmhsjMr8fE4cO0ZwBi7EUn4f1b1J6sDtznAMloKGwXQPTFII4TCaGNLNo65BVVUV69evVxw2maMWyoJ12ghCDiBoOj3u3/0rdOV1KsVQm2dmRZ6ZN7uiqnJBfjf+z39F7OCbaiV/mygp/tnFVQw/euUVVco03UcpxCWxFZZVhEz+Uo0gv5N/Kz95sYqdgSAicsSra2vZtWkTHe3tvPXWW4wODSlOggwy4kAoVQVLDQxIUakAAKPxgsbA5IjBkh+0lvANLkYlxtkeh4RKvSKpazbz2S98gW89/7yaoGdqOaJwKBpVEcOZooK5/WVCl1Tk6MREBigcPqy4CzM1iV7KsSWvLMcX8bMPNZEBLinB5/Uq/ZT02BhPbN6sdBb2799/8ebi0yW6asK9FH/rpdKEM1JUlOEXCDBYqk10NAQYCACcRy7Zxo0bCegD5LvzOXP4DP5ZvpHr/ShmTTEIOyBhsVHytWcQ7T6jUYfJoCehoSbw8L6XmPjR/4sumcjoINz9YYCQSzHIjQkPIdeGAwEVHpTjSDRistbA1E6Qj3nrmjU8IYZJAwM8++yzyo1Q6Q0YjYolLUBgqdY8S4pAiIQXfAuu92ty43zXswek1DoSMV7PU17Tc0mK0Gq1Ul5ZyT2PPsqP331XpRhnazmOUHVJiUo7js9CbJTjK5+IRIL//Nu/rTxU3j9+/JLHF2KjjElnurrJr9jJiGssZxN6fl8Zn8TC2qBpfPmWW7AOD/ONf/gGE86JrLNV1pgmDVqPlgELi7UJOFq3Dl1ZWcZ8aCnLCKdSaG1t88o1kNdE5P5fOvUSnYWd6Cp0VJyqwDN0YZ6c71dphghCg5aRQMq0lMFA4e/936RtHiUTbCBN+txJhp/+H2qCl1WtAAgVQZiig/DMq6+qlcNMuUj5sH1immQwKE/4eDTKyspK7t25E6/Vep4wKKqCS7nJ5J/ja2YiBDeIhEv5ec/l3mIxSTtItcNctl4824j2yR985St89ckn8Xi9Si9hNq6C3NmamhrOdHTMaREglRKP7tpFz9AQJ1tbVbryosiCfGiSS9fruSnyIMvbdlK43cCwNcUe9x7G3b0EImFVcaWaLgW6NJgiYA5ze806vrT9Af7xX75JW2sjiUSc/pEsOVOqVMY0kECJDIrJLICYr8cjQp7iB+cEXX7WkTcF2lAWzOiMYLbBsir0q1d/+CpzOgCyqhXkKivt1CIOlwgwEPK6+CjM84dVVlbG1q1b+fqPv06iIYGh0EDVmSrcg+75els+dN5ZIwiTt5YVflJ4AYKmoxEMQkDItoyO4qUjCKIuKMIoInjS39tLW1ubMke6ZcMGFc47cfw4jY2NhJd43amMT5m0wIXywhuAYMF8EwvqQoSXIJUOC9lO+ko7TITStu7cSef4OJ7iYg42Ns75ULL6F62T6dwiJx9kU329WoCcam2lsrSUs6Oj+FOpjJvgpPI8S9JEbU8NNQVlDG/so62ng4QupoCBXxsjbUiQNprQJy7wl4ocHj6xZieJgJ/uphNYDEZONJ/gXO+5zCXEQZvQMiBBhGflz+vVJP3hAOyg80xTTnueX5CHLq8ajGZIGyElaGKG8lsJyUvkRwjhAhZknF5MfK5gMOOjMEs06no9HvHouemmmygpKeHVd1+lKdKEWTPjC/nQpRdO+fOsHIS5dpaSWlYchNs+xEFoOneOn738MidPnaKvp4fl5eWqznlwYEBpp4sU8VJvGeKgKBBeAAQLmTfg8xVQU7Mcr9dHVfUKJXstkZ5IJIzJaCIUCjI8PEgsFiUcDqlnKB4V8v+7u2/o4V/t91kWOgIQJKIw4+B9tU96HY8nbquV1dW09vVxz0MP8ebhw4xfghgo3CVRVMz3eBQBUv4+Y8vPp7C8HHFFnYjHeWL7duLpNHtaWjgkyo2TV8SGGJii2EwGTKY0HquV6vLV2I7ks682Tu9YI45o50WrT5vRzJayWrxWByWagTKrk9bOVp5/83kCkUAmkiBFVknQghpMr/90dXpcggTFYpUKCH1gqhWI6L8U5IPXB2Irb8qox6qmAILsqIOEDVIX/l9aIi7BMpZFxun2jF8ACBJhEG0ZWZHPIoR1dW7uCo8ipbEDAxmuwQKJfhQVFXHvvfcinkLSvv3tby9IAa+PCBBkwsvwB+S/6QDCM888w9NPP63KNpYeYXCmFzaxS5gbAAAgAElEQVRDIszwBmSbC8DgCl/xq7rbypVrWLGinq1bd2Iwm2nr66Kzv4fWjna6hvowGE3Kz8JgNGIxW1RphOSEheMh95NOpZVAVFpLq99p6bQiqcrfE/EM4PO6POzcsIXdm3fy42efZs+ed67qPXwcD5axnxfJ5sVlADXXZyWcIrfHw7KaGu584AH+7plnLrlrrtqpuriYgbGxC2qNwryXev1ciV7WV1zKpAucTlaXlPCZrVtVBEIimofaz/LdY6/RGRjKpBOyrSKUzz0tO3HvayDeoOf7yTChz7bj6XmFkdjFoES+EbfZhsNs5ZaKlXx2wx0MjQ5z4OQBvvfiP+MP+TNkRuErRDTov4rpB4kYFIDOocukFKY2kUQVwTghH9odsmKZvW81PcOme9FOrEbfY0cI6593dPDKqteJG6akGDII9nwKQhPdmoUSBRZdAyEiLhBdAel0eU+EmCiWAjInPvfcc0p0byG22asYNJngMuEOeQdmUtjLGBlNDxCulZvjQujMC/2RqSyQFUd2HLrul6fT6RHNfJnUE8kEaQ1W1q/hjjvvYzge5uCJo7T3d1/368qdsCSvkN3bbmH7mgae/t6THDq0F5vFql6sYHBmZb15u+AFfGLRTpCyyMWqxDjXrhXb9k9/7nN8+2c/IxCLqUqnaVsmRKcGqOUbNlBfU8MbLS3oJYyeSKlQf8KQIpVN6SnALn83xCnN1/PfHv4i+7vPkmdzsiKvRH07Tx15nfe7mpTuilRghRIxfAE3u96/jfG6QrqXnaTPeYYSm42+4ATxdJKUyaJ4C/pkAl06M4lWegr5P299DFsSDred5M76rbR0tvLu2+/z2s9fzQBxIXyHw5dMl8zYb4IXS0FnldyluMWpHGYmEuCwoxNvjLz8TEXCnAaozJhvSOsITRQz0rwb20QZX0mf4Du37c9EGuTY0ymBXrByVZOyJr4dEmEQdHs9jY7kXIEAmhgsLbAmZoSf//znVZWdVN8tVHAg3XZFEQTBA2lvPoaJjFLhbCmGpQQQJC2Q+77EyXA+fQrsdgfFJWUkddA10Ifdbmf9+s3kl5bR0t1Bc3c2D7rAPo7c5eS5vezafBPpSJTT+z+guXnxGlrNRxfLNxiLGZRuwjxzra757Tc0NFBYVcWBs2dZuXo1x86ezZRNi5qfmAQJ+17cAyeJ+NQVFJBXUoLRnybd5qEvPYLTGCI9lCCtjzFWMMCQa4J0FjR4rHY+uWYnEf8E0WCAu9fv5NDpg9Q481UK4sdH30ZfVorV4eDc2CBj0TBegxeDKcFELMxN5hUMVt7Me0V+CgbbcU8MExztQ5eSvIJO5fZ/Y8NuarwlqgJrbGSEgeFhxFgqz2Lhtddew2EyIbLwAwMD9Pb2qrTdnJoMRHLvAohcoCu0oXM7wW4Atx1s9lnlkNMmC0mbi2Taga7fji5koSHlx06ao2UzjCNJSyYNoYCC2Dln0xFKcleX4SbkXkyZrMVXR3L/QnKUdNC1BAti5iVciQVKbN8gnLu8PCXQNzKL2u+cnv013mh6gFDccIFSP80F9G59EGP1GnyhAYz7XgFh8C65CEImKpCLxAmhcDJAuMbP5aLDC6GluroOm0806sfpHR3E6XRRuWw5Sb2O5q72q3I55rSGN5HCkk5TEE/SZrdgS6UR6kSf1cS14s7sXNWAfmKC995946rcx8fpIEuZxDj1ObrdbrZs306f38+2m2/mRCDA8UvUjNvz84iVlpEXqGPDGQcDR1Ns8/fR+omjHLN1Mp7I2NbnWnEgxubyWm4fjBEK+nG7fTRGxzG3dxK7exfrK1fwDz1HMaNnU3E1XWNDdJ8c5ZNnd2IwednfoHE4BhOxAOmil3EaPJRoJnrG4sSTmopIrCoupq6oCH04jCeVYmh0lHePHlV8ihUVFXR3dtLW3k44O8GJb4wIxYlOzLQCUgIMsm6KMmAp4ySbBfJsYDWAMZWpwJihxZNFjA5sIWyoxthZwB29ET4d6+aZ3W/RWjjDClxAgCJ5CkCwZKIKUhERkBykYeYKAQF28szE70AAw9UUoZIKBTm2TLoLhGswtcslyiuCSCdOnFgU/LsZIwjCK5jskyBROUkk9Oz8JCOrduDyFVJcU4X523+G8ejbiocgSopfmSKUtFgiCJn3PUMkvBAlmxUnXdN5yJdfiKO0jN6JUYXIBRAYzCY1QERic1xZXMYVVheX4wiFMVttpGIxNvQM0JTvQR8IMpCOc85uyTIpLuOgc9xU8shbVq5lor2dxpNH57jXjc1yPXCBxHiJvPIS6TKRpC0oLKRh+3Z++TOf4dzAAC+fOcP+zs4LpYmGOJhDqkQxLeDWU0mqsQR72wo2+eCA5RCm6tMktQSVzjxq+0qIjCZoLDlHwBynMBjH4XShM5n4tQ23s7lwGd9p/IAjfW0MpGN8ctV2dlWt4dvH32Z0NMQXK3dTanHR+PIwI/t9/PdwhC13R2hKn8bjCRAWMh+wrKiIUFUVzQYDxe3tVCQSFNntbPL5WJaXx8/feUeBhclNdB4EJMi3P6PWi4oeuDJSyMK7EM2Z3Gpel0YzaCQ9duI+Iym7nbg7D300hLf9JLpwikTQSTLpItS6imVF7VTZwpwp6fnwGyPHNmTTF3oBA9nSR9kyJVwE/fmICXHX9GkI2VbT2HWmnhe2rMUdHCHZ+q8YIjO7cl7y1RVwIB4KErm4ltGJS17I7BsIz0Z11QIFMFOvfsYyR0ljyfNu+ux/xdl2nJI9z9PfcCeD63ejSyUojY5i3/0pLN/+LxgPvTZjFcNCBQg5QCC8gXlxL8wS/zLfikZeQRGFy+s4O9J32a/gVMOr3AF8TjfLisupKiylZ2yQUf8E7X1dl338yTtINUNpXiGSIhgPBTjXl+E15MSuPsrBb9+8g8b33magd/64Eh/l+hfCvpFIJu3wcWkiwPTlL38ZZ001Z/v6+bU7b+NvPniODxR/wEBSEWgvkA5TUTsWe5RNRTWk84o5ce4E8WhYfYOOhJEnOu+gKlxE9FSCsCvKC9v30VLQj9Vo4jc33cWdyzfwwpn9PH3yXdXFTpOFX12/i3JfId/Y+xITERvrfBV8ftMmytx5PPnzTjomztGZblNutVGbjbG6OiI+H2mDgQ1GIyVdXXQ2NbGxtJRPrV3LB01N1Pl8fPPHPyYUiah0igIGU3JJt01McNZuJ+Z247VYsCWT1Pr9vLJhA7e3tfFaXd35yVLT6wnU1DCxfAUaekzhcUr2vUbVRB4PHV+Ly2/n/3v0BfzmKYuPXKTAZKRwIsyw287Opl6iJiNdLgs3tQ8RsppJaGk+qCsiPWUw1af16OMOUgkbmiqf1GHQdNzWtIJ4chs/vbdQpXnShiSWWCueY0+jG+7P3OtccmdCkJeowQLkGiyFb3BagHBn5XrtM8tiPN1l4dhtX2C0YTe6cJB00I9ttJua156ELbuJ/9qfYP7uVzEJQFiAKYap9sXCG7hQWXD9H59JJKTNFmLJOHaHi/yyCvypBP7oxWHO2a7MZDBiNpnVoJeLJHgcTiwmsypBHBgbntWY5lrctd1qUza+4wG/+qYNhtnNcWa7hm1rNtBx6AADPR8NyFyL+1wsx0wkdKrSYckDBZlvJA1uAm+ll9954ncYTcX4oK+FFcWVrC1dzpttx2n3D1Po9jEQnGA0ElRjlQLmegOla3bSXlRBaLgXT3Mn2liM/HSYR/ZvYrBqjPb1PXSERlVkwmE0Y4waeGTVdooLnJhNVl5pPspYOE57bwybycJDa9eiGQz8tKmJApGRN5kwpXTcbVvBXStW8tapRl7ra8LviuK2WoknUoyGg0SMRoLhMOu9XlaVlOAPBAh7PIjL7Hf27iXU2kp6eJieUAhdJIIhlWJ1KMSEx0PMaiVSU4PZ62V9Zyc/u+MOHn3tNfavX0/q3DlS8biami0GE6n+aiaG12MeSrIhaWaLewRfPIUVPX95/3OgS2YInHpJTWSIn7lmTqQomAizqnuE45V5JMTNV6QWogkc0QTtRa6LAELJuI9bm1dR0VfE3pVn6Sgbo8cVR6+yHTqGPVsxGmN4RprRTV1Rx2KZ6gOJCEgpvBAdJzcZaMRgSbZZoFyDxTJezHad0wKEWysatDsK4rw6aCZg8dD46T9Fcxegi4Upe+9HFJx+h/hNDxD71T/G+k9/hvFwBiDsmkYH4XpGEHICRMIVkCZ/Tk4ZXO8HVlhUSkBLEhWikuiWeLwYnC4CkctThZRIwFgwo2Ev+vMum0M5W44FZtadv973mjufRBLsFqtakUl9+uTV21yvaX1tPYm+PhqPH5nrLje2m9IDAg6EnyDVDku2ydyVDzqXKCNm7tKgN3D/LQ9gcDhwl5TRFxijd2yQ+tIaTg51otMb2LSsnn09Z+kcH1L7+KvWEHf5cLXF0LV5KNbFGI8G8CfC2Mr6MNqDShiuwOLAPG4mnkxTH6+i3lROjb6MvDsdfO0XL1G7poCzg4OKIyFt67Jl5DkcnOwc4KHIWm4uWEHfuwG6Y+M0bdUwWgqxmFI0jXUzYe9kKDWiyoXzrVYKHA4e37yZ4yInb7Gwy+2mZ3ycPSMjFCUSjA0Pk+rowJhI0Gm1Yk4mSXi9pPV6WvR68jo6GJ7koyCKt26LBXu8CF3MhT1mo9Scor2kA+eQjcKok3cKmkEfzShHGqKgn6TsJLL4iSSOSJyI2UjKZMQ7HiRotVAYdBAyx5iQUo1s80UcrO2pRBfNhNQjo0UMLK/mwNZ+zAxiSwxhHRxDlxTGu+gvmAWxTfuqqgiBlCkKUMgqOmpi5y38hY+Bjs58fr/TAoTbKhq0e4ri/LTXRMtNn2aiYg1FzXsY2fwgOnQ4ehopmegi9uk/xvq9r2I68rqqZbjeHAQhDuaMi3KdOJ8CRL6CYgweNyMRUULRqRxmTEuTnBTivJKHbTNbiGT1Ba5k/+u9j16nx2jQYzVb8IcvDwzJtQrIWFu9gtTAIKePH77el7+kzrfkSYwCEgQcWEFXkBUIEjBuc1BbUUt9zRrWNmzjzFAXPz35HjaTlXJvIV3+Ycp9RTy6/lZeOnuIg2P9GOJR9Ak7tqSX9lfuoKAggXvLPoLWzsw7IeS7uAPSJmoiJRSNubjlWC0l9R4GHxxh1BHhxcZG7luzhraBAd49d6ECoNzjocjiJtGXYmv+MlatXsUPTp/haFeA8ZZiygv0BMtaMfiGsYsNtlkigkbcJpNysG0oLcVnNvNqa6viI9gNBu5dvpwDra3s7elBs1pVOkXSGMEpxkOx4TxMngB6U4KaES9bGyuxxE20Vg2xp3a6SJ1EEERSWVQjw2AIgZad/IXrkBSt5jSGtJ5HD2wnf8JD3JCkvaKPd+tPq66yJcyk9Wlihsx+48c3MrD5TlJlNkzmAPmRg3gHDqNPxjLAQPpW4hxxGyRnMIiSqMLgINrJk5mowVxSEEvqa77+NzMtQNhQ3KBlOAg6Qt4irIFRDOkkE8sa6LntcyRcebhNVvIryrF+/6uYjl4vgJATIJo/vYHJj6igqBSdx01ADzGpfVbhOAm7LTHx/Ct8LzMuHVfWpC/v3LKTc4cO0HqjBPLKOnHSXqLCuFQFls7fZhYs6CpFFyHzWyH4OawOPrn7U2zZuJN9XU38QC1oMoZzwlOQVfuu5Q08smEXPz6zJ6N/oFnQ166nx24j7+QhipIFDIclP38h5C5/k0lSficE/mK3i9tXrODnp05h1un4dMNGtifq2PdPbQwlA3Tb/IR8UQLOCEOOsFo9P75zM7vrVnN6dIR9LQO8+H6czdvHOSkr5MwNqAoFZWoH/KedO/n+2XZ6/X4SwXGSqSS/vmUL1Q4Hf7dnD/54nNiID/+ZSqJ9vswhzClqHtrDzrZytp2swhw3EjemeG3LWY5W9WUY/wIq5GfKpGtPGXEkTYxYIqRt42DMcBQ299Vw86k1hOwRwuYYY6YQoz6JKEQ4U3QxuVHT9EQHS0itcGIPtmV7MI1upoWTlIUKaIg5QSRSsg6cWl8fWkvL4pJ3/shf7vweYAaAsCFbs5Ajn8lFZlQTg0U1dO/6AqbiFRTZwfqTb2BsFhvUqxNByPEGct0iEsXzxRsQYyoJSepNRoXOTWYLvvJK/KQUILjezaDXK3Eh4SGkkwmlZigCK5qWxmG1s3b5SiqKS/E5XNgtNiKhIEND/QQCfsbGRhkcHFD/FolkmYDr69dTV7eSdes2YHc6OdXWzPGzp2nt7sBgMlNcXMLg2Ajh6MwlUnPpAzmX/Hcl6YYn7n2MvS//jLbW5rmc6sY2s/SAjP3R6MeExCjmRHnZ1EMWLOS58/jfP/17nOpvo6qqjn8++IrKsY+EL7agvrW6gftW38IPTh+ht6CSspo6jodCOJqasPb1EYnH0cechJIxDBbxa7gYBv/ali28ePq0Si90jo6yvaqKB13rGX4rRLnmoXdknB9WHqTPljnvckce9qSJiXAcS9xIqd3JnbY4yxu2oItGOR4Y4UB3I63uEmI+Nw93NqO75VbeGhxmOBgkHAuiS2usd+TxG1Wr+btTexhsLSHQUsSwP0bxPfvRGVLoUmlsUR2Ffhs7ztbQ4xnnVEUfQYekFVAlmNJ0MR22hImHj67HN+5UpMKEJcn3duzHb4uSVKZVEhnMRhqm3H98Io901MrErgZcI00YY+PKw8IYC0+/6s8REnN/it/F5ChILIXWEURrOpdRorz+Q+/Hdly5JECYrmeiznxC6+7Bc+4Axv7WHOXnilIMGX2BDF8gA5jnjzdgNBoxWaV22EokEUf0B+TvZpeL8CSTluvytqTTmIWHM0llUIiI5QXFuK12YqEg4VCQnp7Oa6LhXV6+jDt338cHJw5hsNnILy5l38kr4wRIXthpsyklvESWj3E5ffipO+6n99SJG3LNl9Nps2ybkWsW6eyPQbWDCAfZdRkyoyXTKZXFlaxa2UBt5Qpa/UN0BoYRAvGpHlH9M0HSCFHZWEdtSQm3bdpEYzTKUCpFZSrF4OgoI22FtPXosdjDRBNJTJ4g1vyMcFyufWHHDt46exaX1UrT4KAK//96/VbaW0bQl0PzyCA9gQCVKS+bY+Vs667FN+BiJDlOt/cYHn8xjqQfavI4WDZId3+albfW4etuo7faQElNPcOxOJGzKXTxNM4hKO6zcLZ4gKK7bCSiUQ63BlleauC9sy2UDnqoGvdRPOzFF7ZjTZjo9UzQuLqHtsJhnFmhKf2IAV1MjzlixJzWY00bsSZNJA1pGkv6CRovGFZhCmfSEfoUGGOkE2bGjm4m1FZF+H9bhnFZELNjFE/fadydjVnhKEnXiDSzpCqyf58meqGiGaKGKLoGOYMlyUiIAZbsJ6ruEtC40jDlVfqelvJhZkwxZG76w0Hiyc8i938zf84tgiCAQHwKcoDggrPh/HSz3e3B6PEQSMQwGIwY5SMxm4ldwUT2Ue9Ai0QvGIpoaUwaJOZZ01yvN1BWVoE3L5/KVWt46fCeK7pNATepdOqKKyzu2LidWF8fH7z/1hWd/8ZOF/eAgAMBCQIWlnxTFP7Mj7I8NglB30h1WQ31desZCIcJjmtUV1USSuj54GyLSjvkmpQI6jWNYrebVeXlHNPrqY7GuLXqFgyxAvYdi9IfGKeRA1jzs6mB7M5em00RDteWlfH88ePqt1LZUFdYSO/4OBsqKpCFyXutXZQO5rG2t4SVA14ObRtm1BXHosVwmQoIaRpdqQAOfwkFHT34licZdNgJJOq4t+c03vQwe8sr0Dwe8vrNTBQGOFzQhZE0FS4XK9/wsXFjOcN7AnzPewDNkMaSMGFMGAg4IvR4PiLhWfwrDHGSYQcTzXVYirqZuGctruEWjPoAltAQhuA4pKTkVIiJl5BelrTHyEgGHEytYJBOlMczBtrw+WD3kn+N5+MGZwUIuU9kMkyQUHEuxz7597kyx6lCSU899V2efvo7yqcg1+ZFdyB3cqMRnceDu7gEfzioUgg6g/78gNDgj3DWYeHhAb9SFAwpURA46LUruLRhIsJpt5X2qyEclLNPDWYJN5f6aObjDZl0Tp8vj1/+4pf51vM/vO5XIlGIrXWrGWtppqkpQ4S60T56D4ifQySy9H0dzveUpBtE9K9chxbXsAfs5OUVsO2e+3l1/35lvPhvnniC0USCb73xYWVP4QKkDAbufuIJXm9vJ+/IMcb7SzC4+pTa8SPbNrBj5UpK8vM5NzTEy42NHO3pIa5p/N6uXfzlq69e9NDsHg86IRyuWMGaoiK+8f5h6iNVVNoc7C8aJpxOotd0KouR0oFzNMjy7i76rBW0vFPHr4R/wpAxj20bLOhWmvmBzUnI5lbbC0EwnU5S1Qr37K/Gm3CQiqbQ/jSF3xzkf7z99qwv0JqCAk7nuBBzeNVSNhsja9fjbmrDOtZL2hBDrx/MuFOpSX2OS30Rlerrg4mJGffRBjUQTHNhWpnDFd7Y5HJ7YFqA0CBSyxnqzUWEu6nxhLkAhO9//9t8//vfudzr+mjbC+I3GEij4fXmM64l0bndczIqMaU1DGg4kmkELIQFPAgrN50mrtMRNBoIGvV02swfEgWZetFGiZboM2QcryFGLGVgdCKFJs5di7Q8x1tYhHtFHV1D82OCcse6LTTue5/+vmlU3j7aW/Ox3lvKIYXEONcxfKl1VnV1NVUbN6qqAOEYmE0mHt21i6jJxN62NiKJBGGpyZfKymiUewMBnn/gAW49dgxDXx8GkQ6ORpmwWDhcWMi6ujr2t7dj0BmwG600VJdz/4YGVlVXc6Kvj9dbWtg/MJCpSBDDJrFddvpY4XZxf/Uynmlpx6LX0eoPKmvqXHvwrdd4d9sOYiYzG86cYsjnpeL4MFqphQ3DXRxfVsXxquXUtrUgkY8xt4faznN8sLYBd1cbAVsFYVOCgCnBmsJCHlm5kn/au5dEMkk0kSA4aVyqz8ujaXT04kc9ScAoGXHQ++rtmF3jeGuPYDROMPD4blJWi5rYDZEIpa++mqlUsEXBHM9qLMwwq+c8GwQczBQ1kKxEh6ass2+0a98DM0YQpmK9C2Ag87fJ2cuMl6O4Od7KV/7sD1UNvEhKer1ergdAEAOVpMFAMju6GZwOTG7PFaUJyqIJ3MkUpdEEQxZh8ArMAKFIHPfYKIolVWSh2Wn9EHiVPnGbEth0MXTJBPnGKEXWkCqfElGPSEzHux3ua/9Ur+EZTCYzy1avZUhLXbaeQ+6yhLQoEQFhYF9JE5Bw7thh2ttbrmT3G/vM0ANSEilphyVf7TDD/TscDmrXr8dQUMDR5guk2Ed27aIvFCKsafgTCbwtLRRFo5zetImtvb04w2FebmjgoZdfZsxiYW9xMaPZygO3yUswaCMRMRKOG6ipsnPTlmLebmvCYDSzsaaWzVXVWExGjo+M0TE+wVA8zqaCPD67pp63O7vpikRp6ohzrkPDVBTG5M5YqusNOhKiJJi9H2coxC+fa8UQjZHu6iRuzuON0i1EAikMvnYqxvScKi/Bb4upqgiPiDgZDORZrTzR0EBjTw9nBgawmUwcO3eO+9au5bkjU3hHMnELXyCVon/fAySjJiyeUfSmzDU57uhhZMcWrIOD+I4cQZ8FVee7XLgKVtFYSGc8IsQ6WsZtOW4wmHFfnFKmqfaVzQIaCF65QVK8bmPYDBGEC1UMk6/Em+fF6/PS0dahQIC0HHDQSCuS4me+/Bk8Hg/ysV0zgGA0YvX5SOglNZDG6nCRNApAuP7xJqshRYk1jC0ZUh+D2xTHoY+hE1LjNJrgr7d4lYT1Ym7CSVhz8228dfyQ4hVcbpPBKd/tVUJKlysalTvXmtJlxPp6aWlputzT39j+Ej3wsSIxTtMXW266Cd/Klby+X6qzMk38QtYsX85EPM7jNTUcDwR4p6+PolAIs6Ypcr3wFMJGo/rx55wldTo0sxXC1QydXUGh20JNtRGDNUlbKkje2g9XCIkOQoXLgbmlBkbNFI85aGyP46vW47y7iz3BjL7C9uICjoyPERZdAkCKNuoHB3B43CwbC3P0rIeOwWLGzW5qLS2sb3MwuCLOa9VnSRnTeM1mzEYjFmW6JHN2mnyHQ7lKnuvr49/fdx9/+ZOf0DmD42CwZzl6cxyLZxhDTqLZakUrKlIT/YfAwUV9rWUAgj6BFhzFbtdI+0eJjo9+OK0g4KBfg2zhxI0P+Pr1wGSA0N3dTUlJCbpciiF3GeJA9eRzT+L2uDGajEQiEU4dOcWf/sGfZjfRVA7/tntv4+EnHqasrEyBg6sFECx2B5rbRcIkyUOd+tGbTCqOMR+aA/mWGLXWMQzRIPpEDIs+hUETVu6lAcrpATvd/qzs2/V7zlf9TB5fHs76enqHJcd4+U1KNe1WK4Fw+IrKHwVkFJgsRLp78PvHL/8Cbuwxaw9klGw/BtoJM/TChs2bqd2+nefefPNDWwi/QCyg77vlFoYSCd44dYr1tbWcaG29eFuxoxY1w6xpUipqwxhdx+ixFTz0qQRjnl4GubjEcvIB4jJOxIz4/2UV9WEPD9SEeeWJ45R6bNxcUcJ7nT2cED2E7GLNKJE5nY7w2CA1TheeiJ4D7T1s6h0m3lbD6riP5VUa/ZFf8K2t1VSOj2NOpWgVq+wpzWwwUCZp2WSSxzZspq01ys9OvnjJr0YpweikpPnSqyBN1BGVBbQsrPSk+vsIGifQuS/EpzW/BlIcMqlw4pIXcWODq9YDkwGC2FPX19dfDBCsNit72/YyGNf4Xk+M1rG3uMnn5nPLb+HZf36Wr//J10kkExmzpntv4w+vNMWQnfjVnYnjlZB3vJ6rdqOXeyB5RfU64Q9omHRpquxByvXD6EUm+SM4cQViBvZ0ui73chbk9jt27OKYf5joFag85oYAWXVNNXjJpXQuVYWnbHAxMNLeRvQjajUsyA5eABclmDcaNX4suQn3P/AAQaeT97PVB1MfhwDcssJCfvfxx/nZ0BD7bDaSr7zCmm68jUEAACAASURBVKoq2sNh/JLPz5qy2bxF2LwFFx3iz3du5i8OHCPPYqY3HFXRWJUmFVLiFG2B9Y0F3J+s5Kc7mslzWdVxGgryuLWqgr/YJ5G8NFo8htOgqXLFUrebmysrKdA0Qnv2kLYW0v/TU0TbBnin9y7sn2vCePId9lZWcs7pVDovU1uh08na4lKe/ZGDcE8pn3nYw2MPaXzztZ/QOz6ieAsi+S4tWlFBcPly9NEoxkAAUziMtbv7wx4LsrGkRQQYZEsXlU7K+DipyYZLcovCD5+7Tc0C+FqW3iXMSlKU2/2bJ/+Ghnt2c2giyYuDCfb2/ZAqS5Q/WvMgFTj52u9/lXdeFWezywQIEtYSnQGxDJVPw2FH55Ki5fmrzTbr0zh0UQzpBBZdikqrH1diYvqc2BW+C8G4gQPdThJCSV4C7TO/+bu8eHjvZflCyJ374klSOh3l0QT9Ljv2SJS4Xo8rmSJi0GNMa3TaLx1pcdkd+FLQ19xE/AqAyhJ4BNf8FjIp4o8fiVEip1pJCQlrZkKe2nxuN8vLy3HYbLyn0/HvPvtZTnV1UalpBMbHOd4/QEsggtVboCoVpltTr3S76R9NkQ5aselMtPmjuFw6YtYgRlvignCjprF80EVvcZiosJ/koeh0/HptFc+1t/NgRSkH+vuVqdRoNEp/1sDovu5uJqqrOTQ2RtXwMLVCprRa8cRi1D/yCCOBAO/199M2OorTZFKkSZ/Vit1iIRaXskUbR98rYng8gU6fxmCLsmbTGL+6q44PTp1iYGwMi15P++AgMZOJoZtuQisoUJ4QRT//OcapZdrRKJpcm6gjZpv4y+SlUnSfOnXN3+UbJ7i8HpgWINxcvl7bVZDgnWETT770L6SrV/CXbVEKzTrsyYNU2/ScnOjhP6x5iL/6g6/xi+d+kSEpzhZByIoO6cymzBVKjk4+vKw/9uVd9tXZ2qDT8Bhi5On8ilRo0yfJM4QwJa6d+kYyraN52ErXRFa15ercyrwdxeFyU7mugdbRwTlrHEjUwJLOJIesaY06vRmryYJ/bAQ9GmsDUZ4v8aiKkUsHKsFpd5Cn6eg4cWze+uHjcOIl7+swzUPUlZaChNpnAAi+/HxV9phcu5bB+nqqzWY+U1LKk8eO8381NPCX+4/QEwqr91gUhCe3dMJAdX8dbX1JzjVaScf1FN80QOWqCP5xA+6+YSzhABNlLip1Gc+E/HgMzWRiPC1M/gRaOMhyu5UfFxUpwuGuigq6g0Gc4uMghMm+PnZUVJCMRHino0OlQT0WC4XdDloKL1QoCCgotFpV5KFOt5LBHg/jDJAo6MCVyqc0H472tXOs+4IVu6z8N1dUYNfrGRkf56bqal5pbKStsJBUVRXmDz7AmOMvCDCRlELWyGpqd1oiEdL9/cSnkho/Dh/WAr7HaQHCzrL12va8BO8Nm/neKz+itGmQ5mc+wOa0Yr/9JI6aKOOYqWn4d/zHP/qOAgjSpgUILzzLD372rNisgUQNsnKe89knSpAo4KfCFqLGG8YmCa458Aeu1jV3jls4MzSDIcnVOsl1Oo4MEnWr1hF1O+kamRsfQcbJ4liChE5HSTTBqNVEpc3FhPhZBIMEjHoFINoccwdRTpudOnceh9+fvbb7OnXLkj2NLFxFZCkazXgQLOQm+fXCiQk1gQ+63ZcsS556L3a7HVtVFeOapsoeC/Py6MqFwXU6fMuWsX31am5bt47/55VX+JVHH6U7mqTIZKbQ6+FUexf94TC7q8rZ2z/AydGLuTJaWofJ78Ljz2ffWw6cVQGKbxPHSQ1DyohhMMnGZ0/RVHMrhcMnWKlvwVhkYaiqCKLDFLe3Y0nE2XPLLRTW1PDmJDJhid2O8AiK7HY+VV+v7KebBwYYkRW90cgf7tnJB+4OPqjPGFFpaT1jh+vRB50YE3bGRvXctFGP3zpI0YoJViwzcUTKD1MpfkksrZNJ/uXgQcayZZEeq5VKn49Rv5/71q2jIxAgajbzweuvq5JuTTQNplNLzHb68uJiHMEgp44dI/URUrgL+X1cjNc2a4pBUO+PXv0hq9asJPTTPYz9+ffI/+vPYFyTQGe0YyrYzh99+Y958bkXFULeNV0E4aWf8IOXfjK/fSP5ueGsXOck8kxtXpTa/Auhrut1kUMhE0JWjC2RNIP02xd/6//g+cPvM+q/ckU2meSFz5C8wgFiWUk5ZXoTe97JmPHcaNeuBzIkRoMqi1yorWZsDJNMTtkLHHK7mbDb5xSVkl0KCgqo2LCB0/39rK+rY8WyZYwHg9StWEFKr+dYZyf7enr4zd27GcDCQytrlPRxOpFkX+8Ae3sH1JlzlV5/f9fNfOdMC3v6pwHSGaubi1re+BiFIyPsfPsI+jGNQ9s/z4OHX8KQcqLXJUloRRyo7yRmmiDocPD2+vUfehRVg4MZ0mBJCV+pqmL/sWP8OJ3mvz6fRFe7jp+bIry3upc4erqevf38/rYyP65VHYwfXU6hwc3dDyY4oT/AcDh8/jKFKPwb69ezs7KSnx87xgtnzmBKJKgeHydiNPJgQwM32+28+fd/T1Cno9Nsptlmwyty1UYjgWz1RO6klcXFrHI4eOUXmQXnjTb/PTAjQMi9r+XV5Tz1/FN4x2OM/cUPMN3TgmlNKdZ1/4l/ffpf+duv/S0Bv1huzRBBuF4AQUasnCuZIOJoDESQaLqa2my/zxdAEP7BiX47w+FsumX+34OrcgWb7ribo93tH+lYLpvjiksf5cTrauuVROvJQ/vPl+J+pAu6sfNFPSDRA/nUFrpegsy1NZJXj8eVXomUzmf0WqDP5yNmNJKQ9KZU+MlnKBtMluXQ6/FWV2MvK1MEPrPNxvLly7F4PEovQOd0sr2ungN9Q9y5ajXBdIq62irOBcO4/AF6J/zs7x1EogSpqJFEyARpHS69jUfXFXM00YWm09EbDCl7ZkNaR8GIVRkjpYwaSWMaUjHQxwmY9UQiYxgnRvBbrfz71k24u/LRj6Z4aucpguY41V4vjkIb+/2D+M0xUlmSoyGd5ouvv867a9Zwq8FAZbqKhp1baf9mE2mbD53LyuFImG+NmxmPm9CbZfGXwrG8D0dlBuBISwadPFxdT9w2xpHhPtUngSlib1tLSvjkqlXEDx7kpeZmTGYzLr+fLT09uO+8k57WVt6IRCgMh+kaG+OsVHlMaV6Hg1+6+WZ+8dxz9PTcEEOb7+HnkhEEucA777uDhx9/mF1378JitShA8MPv/FClFloaW7Ifnnb9Iwgy+UteS4CBRAkkdSD/nmObL4Agl3ey305v4NIkvDneyoLYzOPxUbvjZo60nvlI1+N2OPGHgld8jK1rNlCQ0vjFz5+74mPc2PHiHhD+Qc6/YTGYPFlSKZaNj2ObpMgnfPvcT8xiIuCx4i+1k/bq0UJiDATIa5cCXVERSPmf8KSsVnRer+JL6Ww2zC4fJqsdX14hlS4n7fE43V4PIyWFGBMJytq7cPiDRIdtBLvcRIYchHodaCkd+euHKdzWh8ts4JEV1ezvHyDPbqNzKMS6N32sac4j7k0R1ifwG2OEaqPstTTTbR8/P+lXjnp4eN8q/PVRyk56sJtNJFM6jPk6ujaO8765m1aHn6ROwxcMsrq7m/r+flqqqqiM5bNqnwdP0IFtfQB9gYOwsYH3TvXx7m0TRHwjhEU1dpp0QENnMfH1KYq8Dortdp5tbFR8hmgqRTS7EDMlk3j8flxGI9skFTE0pIiQFUVFGOrqqLBaOb1vH2c6O1UFyOv79qkKjMlNSJ+PbN/O6QMHaDx16gYvYR4Ho2kBwvqiBgG3Cm4LlUxCVL58H2s2rFEOh5FwhAMfHCCZFejIbHV9UgxaIAjCgs1FDITUcoX8geXZFMN8BEkHAmZODdoQ0uJSaus3bCGvfhXvHN57xbflsNkpyy+iuTsjCHMlbcPKNazNK+Lp7z15Jbvf2CfbA6KFkIsaLAZgkHtwEjmomJhQdf6Tm2aAtF1HUg8pE0QdZuIWI0Ol7oyuf0wH1nxwVqJzOEAqq4RgLQx/lw+Ly4vRYkes4PU6DYclTdjnpq+klDGjjbSmo7SjB+/wCKJjEO51MnY6n+iIDZMrTvWjrao6wZEwEDalFE+gyu0kkEjwePlyxp+OYW82cqSskzbvMJonTadFQvYXwhumlIFCv50JR5Rlwx6w6ZUHUmEin67BIjZv1njDdhR/KokjWy1QLGApHscQrkMbslCr7aV6OEzQGqfn1p14XUZazDZuXVXDs2fP0iXR1yxfrNBkwmE08uuvb6U1Nka8OEHbllEe2baa//bee8RTKYTzIAJLp9pGCHWUYS/pxeiKZDRrHA6K8/PJW72aHrOZms5ObrPZuLm6mv/+3HNsqq7mwMmT7Dt58vyj8jidiNGVz2LhE7ffzg++/33OnPloC48bH/Xl98AMAGG9JqBApesVUJgqR/ThhJlscU04CGLcIfyBXFmMgIE5iHDMpSuWeWPU5UcxZK2m57LP1dpGbuHdc26iMlItoSbvjbesgmS+j2BYpM+urPlcHsQBsn906MoOAKysrGFjcTk/+uFTV3yMj+OOOZGkVGrxejPkRaOU+v1IiF01SSU4dJk/s5hcoINKPejE4dnAWE0x/vpqsDvA7AAtH1I2LE4PjoKyrKZB5nt1WlI4LWliSR0Gg46xmJE8p6y8dYwlzOiiCZxhA4+/UIspYGY8asJjSWAwp0lYUrx0Rye9RReK/GVBJgqKhkCIL61by/PnzrKnL1O5MFub7IdjQE8yYaCocTcP3mnn6z8Yxr2uD2dtH7+09wP2WDdTtewe9r41xMP+H1Pi6mW4xMqbq1YpvYficSuFSTeDy4J846GH+Ob+/bzV3o7ebCYvYuJLz21H9OCM+XrS3jSGUT3+J8L8QtdMc28vumSS4dfvYmu9g9MdEeKljTirOjKXL944StwOghs3slYAVmMj/X4/j61ezS9t2qREns60tfGf/uEfzt+yyWjElpeHPZHgtx57jOGuLv7nP/7jDSLjpV6Mq/T/Z+YgXEAH6lTT2TxnriHzfzIAYdeHhZLmwkHIRQOkdEdLowWDILyGKySrzbVvih0JVhVFsEi+bx7aBx0uRBdhqTVxx8urraMzMKrEVK605bk8xMVAJnrlainrqlegHxnlxLFDpK8w0nSl17+Y9st48OiIxTIRg/lsYn8sz2ouz0simolpjH1EArlY3FplfHKDzmTAarOTTqeITU5D6vXKxyXlcKBZLCS8Lvo2ryRtsyqegdVZjElfDpoRvc6IzZhWUQMZqoZjFgwWPc50nLFRE6m4AZczgccbJxrXEU7o8fit3HKghGXn3ASccXoqgrx1Uy/JSYsSTWzQY1ECg51o2TFvTXExv3XrrfztBx8Q0zTGo1Gl3uiKmYmYkqTEy2DKuHz+mWk6arRV3F22mmdfjnGiPYajNIDOG+TuwjreOjpCIBZHb0ngWtmLrWxQaRzYkkbuO1unENT7FR0kClL8xqYNtI6OcrC3V1U/DEoVRDJJedBJaY+bFUkPG+8p48B4Gy8NnyYZ8jB0uorQqIPKkgzHIL7sECZniJQu49cgUYWE202Rw8F4Xx9GJZmvKYD069u3c1NVFcFgkBfeeIMz7e2qMsIvkeJsCeTvP/EEE729/PS550jEYgTCAbTkXAqi5/OtXpznvgRAuHBTF3f/1AjCZaYYMkuU846GWjyRSRtM5+B1DfvVa02yriSMfZIV9TU83YcOLdUMR3od1/OU1+1c27ffgqGkmL2nP5o2gc1iJRL7aJUmq8qqGG5qZGig77rd/2I5kZANBRgkEpk/r1XT6/WIY+LAwACxWAwpIWxoaFCy7U1NTWpCEIM3t9Th19XR2Niofpefn09YmPM6HcuWLcNms6l9kskkQ0NDlJeXEwgEGMyy9VevWc3hxsOs9XopDPuJRAUk6HAXFLJ6+y3EwiFG+rrp7+pgYmJMcQpEDlmcD5N6g/oTg5FYZQnR2iqihT7SFjM6zYrN4MFrszBs8jEScuD3e9H0Vnydo/jP2EgM2Vi1YQjT2mGMrriq7BZugBg1bTpayKENQ8QNFy9GYsFxEuEAsaBILn94kpPJ81c2b+bo4CAehwPfazaCJIhYMz+dvgkmLNmJd8rDq7Muo6+plO5ogKqNwwydLqbSY2bA0gKO6auN6nsKeaR9FbZRE6+tbuZcwTh9vgAPrlyJW5wte3oo9Xo52t9PRMZsWQDE49xWW0v/2Bj3rVrFvx4/rsofXRQw0ObDGLNQa0tx1jRIWW2I3qyCYu5yRbExkkqRSiaJyY/HQ43RyGNr1+JzOBQYONvaqoDCieZmItEoVvP/Yu87oOO6rmv39N4LgEHvnQXsYhdJUV2ybBU734rjbsdx4rilfSfxjxIntmO5SXbiyHZsdVmyZXVRokRS7A0sIHrvM4Ppvby/zh0MCZADYDAYNgl3LSxI4Hv33Xdfufuds8/eYmxduQI2az8UIh66WjrQP9wPEAUt82+Sy3X7X7f9pk4x5CzhkmZMiTO7FBBcKN5JBLkSQkmb8PWLpZYnIwhcKAxQyJnAAJNmI4BwdQW2leI4GnN9UEnmbziUrSv+Roc2W11dc/0sW7EW3WEfPIHMIwB0UgaNDnaXY0HnlydXITg4iIkJ24L6eT/snFRGTFQjXJkUFwGEpUuXwmazsYWdVAq/973vobm5GU8//TT7W15+IarW7cCGTZvx3qkO7P3lv2HdunUMLFBt/KZNmxhg6O3tZVED6kun0zFzuKNHjyIkDeFrX/4a/uln/4Q7122H6FQbnHYbIsEgypcuh6WsGjQOr98Ll9uJowf2kAsTwOMzAMIXicETCBlAoDdTXCREyKiFd2kV0/mI6IwIGorhlWkRCumAXSpI/8iH3hph3IOtxW5g1SjOljsQl0dYpEEi4OAMCBCITJ/nsM+FsN+LsNcFLg2TOcrH1+TkwDsYwTdMN6P/NSccdj86Sq14ccl0w7J4RAS+KAKJQIANRZV4Z3wQMS4OmUDA/uZyu1Gl1V5q5cwMp3j48IF6VFvNgAAYFXnQWjyOwxWDiIjiKFKrkSOTMdC2s64Ofzh9Gp02W4KvEA5jc0UFRHw+Jvx+jLhcrNIhx6/B3WMr0dUVhbLMgT/mn4FEKWBREeIvJBsvNxei3FyEtFo4rVYo+/qYZPPKoiIUazRYbjbj3aNH0VhcjNfe24ezo23gqSLYUN+EsfERNJpLcfLEMXT1dIFzcQmwsNgWNAMpAUKDuYF0PKd0fJ6McD6BNzX3NStAePrXeIJywMk0AllB8zgUasIo0IZAX9FtV0k0iB7eZRYfNNIrDznphTLoEr9vBJNS3YV8vgD3fuyTeObg2wu6SYUCIfL0RgxYRzPuR8DnI0+pwcDxoxn3cb3vSKkDSiFQpCBLNJ55TQmlDqjRYk8fILW1tSgsLMSuXbtQc/snUbnhdnitQxAL+JDmlSPgsuHcC49ioPk9tr2ULJT5fAYO6P/Zoi7gg6/hI6wMswXtrx78K3z/f7+PYh9gGHawNAXHyhSlECrVgFIBnkSKWCyKwKQMsFAqA58vZMTDZKM3HiX/SM6s5Zb1CKvkEEsFCIjkGLLUAmIj1u0zYu1zERzskKNIHoX05l6cWDIGsToCoSAOV0AAhTjOwEESIMQiYfjto4gEfaDUwnwbqSV+a//tUBZLoN4pwz93vI1+QUKAiUiCekcpIsMWCOVhmOvtKCuRsq9/8oUQ8/nMylnAcawywE9GTSRoFIthhdmMeCyGo4ODGB10o0BhwPaKUgw63NjV24E3J7oRovFSxIC+4AUC5vxI1+CjK1fiaH8/3unuBuRyqKNRqMVifHnLFvx41zso6tDhhs4KiJxCSIqFiJbHsG+0E/vKulCXa2QVEK12O2ISCXwNDQjl5KBaJIIrEID/2DFIJiYYP0Ejl7NyzofuuAN/89yj2FRZj1g4iF/ufhahSAQ6hRq5Sh0+eeNH8IPHvo+BkYELFtFXJ4s838t7zW0/A0BoZLEujhdH9Zpq6Ey6lDXl9KB3nuyCc4Ru0NQRhKefegxPP/kYxHwOlcYATMoLZt60SPZMSNA1kVrr/ErM1op8LwzyywsQ6DyjkzfosIvOV4LYZQznXol5S/cYYrEYX/jrf8AjLzyOaCzzeaZUg1Gjw+D4aMYOntTHMksxjryzCxGKYH0AWgKX85gz4+VMIcw0lZ/61KfYIt3Q0IDHH38cO3bsYCkCap5QDMVrbsJJlwSRUABvPvQpxEIBrPiTr6P9racQj3PY+tUfo//ILpx76ZcIusnW76KWC/BUvISxz5SWM+6F2epNeLuIROBptADV3U96vSQjBkLRhb9d3DVl0OUATty2ERGFFAohEIhxiJEWBI8PvrwC974iR+FwLs6ut+JouRMycRzuoAD+MJ+RnzWyGFx+ASLROALOcQRdKc5hnvfh11/egZMlA9hd1476XBP+4a678A+vvIIhfxDdLy9F0JFIWzJeQYEdhjVnmakTSSE/ce4c7A7HeZOl5KF3mCrx2yc0MC7tBV/rZs8YXxQFeBxMMhm2FRWhRKdDg8WCgYkJ7Glvx9tdXQxwBCIRlhr4mx07YPf58NuTJ8GnKIPDAZ1cjr/cuBFPHjuGPocDoXAUGzvLUTucB3OFGi9ZTuBsfBwmtRwWjRInR8cR9qgw4a1G6FYxduZq8IbbifxDhxCNRMCj/IHChrUFFfjE0q3Y19kMXziET2+4A//+3KM4NdDGxNYK9bn4wrb78egzj2LYOgivxwtuiFLbFBqaibwxzwvxAdg8JUBYkdvA1ahi6BPJoCrKgTnHDKVSif7+hCzn1OZ2uGHvmkA8FmckxYtTDIdeewSHXn805VSSYNDJEQUcgcSXxdVolwsghKJ8uEMCRmZyBYUYcovfNwZN871O5lwLDNU1aB2aZDTPt4PJ7cVCEQOqkQUAjcIcC0qVGhze+/b5L8gMh3PN7paUQ054J0yaoV2l0T7wwAMsLVBeXo53330X7+w/jDvuuRd/ct89+OmBUfAm+nHwhcdg7UmUsEm1Jqz4+Ddx9g//BWd/O+T6HFRuvx+a/HL07H0Rts5TCDgvqmyRAjwdGb4lPvv5cQ559gD0ngh4CmVCy2ASGPAFiUiBUHzhb6mnhgchRBCHJDiw7nbwBBLkSGLw5I4jzkugfQIAUiEHgVcKvzgGg8wAp1+GeDxBzqN/VwoDGLMFEXCMI76A+3bqGGvtZpwzTFdjLNHrsVJ1A3bv48OgkuH48DBiShcTPBLKEhweuUiEP12+HAe6u1n0vY1SA1OaMCaDyVuKjiNGKDUc4rkDCPK8EIhDEEvHwOPFIBOKYPQrMCbwoqksH5uqqvBOWxusXi8sWi167XaWCtHIZDhCxlX5+TjT3Y2avDwoeDxWtUCAonci4QNhCslRNGFAKD+CTr4NopAOmv4NaO2LQKL2A7mdCCxXocoiwNhAG+RxO3yR6Rop5RoTbqtZDZlQDDFfgIHhPvSND8DldUMqEqNYm4t9R3fDqNDgVNspRCYiifQDgYXU9I2r9LRce4dNCRBW5zVw6wxRnOIpIC0wQ6FQMBUxygVe3LxuL2wdNsSicWzasQlf//bX2EucCEdarRazAQRaRInJH7mKrOlsAgQ6nxGPCPSbGMwTfhFii+RaUGi5snE5xhHDhCdzKWa2gIjECE3ai2f6OFUXlaHOmIvnn/lNpl1ck/tNFTIicHAttOXLl8NisWB4ZBTlG++EgsrpTAaMnN6PqEiBU3vfYO+VZMWCwpSPpo99Dad/91M4BzvPn0LekvXIX74FUpUW3ftexPBJcpC9qJGLukIAcYUJ+cNuqP30BZyYB+IWCATCBM9gRsdYHiJCGfzjWiBCfiAy8INmnOY9CIvMD+1HjmAox4b4pEqhUMBBLOAQCPMhpK91MeAJyMHjFODHNYDXCrPEhdbBzCNnNHa9V4GqMTPOFAzDOwMhkbYL2gwotyiwuk6Ps+PjqMjNxd6+PnimGCCZJRJE/X4sI8KnQoG3urvPixyxieJ48A+aYEEB+pq1DADx5G4I6vZDIAlDKZKgxK2DxalDdCKOUyWDsCl8qM3JQV1eHk4PDaFAq2XpgJaREdRZLOgYH0d9URGOdncjx2QCFwpBxHFoGRuDjSrWpjSzWA/7oA6RoACNhkIcPCyBQOhB0wY7upVnIFMEIARFceJwhi7lNhFAqDUVoiGvBONOO1wOG+qN+RgZH2HX3TthY8fee2IvQp5QAihQUJs4ovPP+FwLj9hlHUNKgLCpoJ57sDiMp71qCC1mtthTo4eYcoBTH7CFAATSANjTk9op7bKe9ZTOFwoQCAj0OaQsWkBiJZRr/KCkD+ZzjVQqNTbecifebD6csdcCHY+4BMsr63G07fR8Dn/JthZjDtYXVeKZZ65/jYSk7HEycrCgicnyzgq1Dtu+9BBiEjVy1DJU8kbx+ksv4r1334bJZILT6WSEt2RTW0rReM8Xcfp3j8A9Ml22WyRXwVS1HFU7HoB3fAjNz/4QEf/kAkMqh0uWgGc0QCqOo7DtDKQ+F3tXCaWJXPlUjkGq04wJRQgozZBNGOFuFUEe4UEUKIRbcAtEn98LT80w3OELwEsk4CDkc+yZJ00EihZSaiHs8yAaiMIsDkDDk+Hc6MIqlUqtRtx7qAkOhR8RQRy/rusGZ5ydj6MQi1kFQL5Wi4+tWYNvvfEGXJEINLRIer1sPsoMBlRbLDg4OgrrpD10cl7iPj6CgwrExoqgLOlBbXkcznAAo7Qvx4M5pMKn3lgPb3EQ42E33qptg1XpZVwBs0oFsVDIKk2+tGkTum02HOzrQ6/Dgb+7+WYcGxrC3qEhlCsUuK2qCn//8suXXA6q3hBzMnAOMR7sWoegVIzDYyEIbjmDLnkzI12qRFL2OxVQOH8/SeTIUWqYnsrnVuxgEvy/P/Q6NlU1wSzX4Du/+k4i5UAggSR2YmXuAAAAIABJREFUrIvkxqkXIyVAWJlbz5Ur4+gSKWAqMbEvwJlaAiDYEYvGsGnHRnz9219PO4JwvQGEBDED8IUF6LDJYPVfvdRIlt/jV6w78/ImWBcYRaDBbl22FrtPZq7WSH2Q2UydVI3Tp49fsfPP5oHCYUohXHs6GjweH0T8q7vjM6ja9hGMthzB3h9+Ja1TN1U3oermB3Hyie/CZ02txS+QyLDmk99C/rJNeO2fPw5v0EnOSuCVliaUD3k8mEbHUDA6AAEIfMwvjBeSKSESFMHYI4a1cyO8f2WDs8wKAgTe0AWyw1SAoJPH4PLF4LbZzqcSqowBjHvFcDopIkFshvlHdQRxPj52eCUKxwxs/k65VdjnVMNeNILoxv2Q6JyMJ0CNRwiRBO4m/5uOFp+MlmwpK8PdTU34we7dGJyYQGwKS/Wn992Hb+/eDWsoxPQIQIBtBg2aXCXNjQADLhdEcQH+/K3NMOWoEHHHEJ6I4fdrjqMl54KHA42LCI13LVmC2+rr8bXnn2fH/uz69Ywk+cjZs9hoNmOtxYKf7NnDqh7OV9CJvSgJSbH91DIYR3TsHFWVcgyc4cHx1XM4FRlE68QwNhZWY7d1AKMrb4K25zQUw91MT2em9kDjRtxRthzfevIHWFe9HEVyPX7yzE/g9XsQmySOcg4OSGay5nf7pHWfXy8bpQQImwvquU+WhvA/Dg0UheZZAYLH5YGtcwLxDAACyQ03j9KDc/XabBEEelYCUT5LGdDXAUUKbIugYEEXq7GxCS6VHAPjC9MkoEiCSq6Ek9WPZ9boBWqQKRAZGYHTlrliY2ZHn/9e17RREo8HqcYIpcmCkvV3QF9cjYmeFrS+9lt4x+dWBEzORl7jehSu3oFTz/44NSmRITs+IBYjZ8UW1O/4KEIBD1r2/wF+nxNCqRyS+qUQ6QzgRSMwH3oPQt8IhD4iUqdeNOJ8Ifjx6WkAPo+PAr8KI0sacG6pAjJpjJETg4zTkWhSEVVIcPAHoyhW2NHSP72PxjwfWsfkiRQqkZKDGiBOWs/pm7RJo0J8+bVtsKu8cEZFeMyhhkuUIHqTLbSybBC6+oREcbndzhQHm6uqsHpgAEWjozir06HDZMKKwUGYIxFULF0KSWkp/qetDSatFl1uN3xiMZqKi1FmNOLYmTOw2u3Tyg9T3akmhYKRF539EdxxtpEZMwVVITiCPrxV3ganJHWNYZFWi0/ecANeb2lhlRU1JhNq8vPxVm8v7l2yBI8fPIhAOIgh3xDc3HSOhDIqQeNAMUr7LBBLhXBX+OBSeyCo1+N3OiVKNAb0xmMQuSfA6zgGkc8F/ixk5EKlHh9fthXNnafRVFAFFU+Anz77KKKRMIZtw4m0VwhgYCHJV/iAVUOkJinm1XPVyjha42KYK/IgEs98QzusDjj7nIjHuHlHEJpHFBjzpv+wzP+VOvceyy0+mBQXKisIFDiDQkacpJSBMyCEKyRkAGGxZWcGtu68A83jQ3AsMJIg5FMNO4nRZJ48pBJKi0IFe2cHvAuwqs7OzKTuJSlmRL+vtsphqhEqc4pQuGIrNAWV7OvPO9aHvoNvwDt+Kal5rnkinoFl+SaceuZHIBGhSxpFCORy8Oi3QMDIhvUbPgRtTgkCPjdcwYReBskOkEhpUATIbONQ9bRBNtoLfiThPBvhZIi4VOCFBDCAD3/O4LRDLed6QJQGz5pK+ArNsEp1OBrJm5Y+VAr88Lj98PmCWJLnxskh5bQ+GvJ8ODNyUXqBAEJUBkSkQHzuCCQBhKV9hWjPtaL9bA2C4wZIzVaIVF7wRTHI8sYhUnhY5KDI60Uuj4dXbrkFykAAH379dfSLRGglT4NAAOtcLvg4DmeLiyGorcW2qiq02GyQGY14JxCAmcfDcgA6hwNvnzoF20Vph1TXjkor8yNaxIJ8uKHEhIuPsGYAajWVd5I+ROoXp1GhwLbaWpwZHESOSsXSEtSO2Pvw0I7b8GrncQw4rTgy2A5P6FKwIeD4yHVrUThqgqfWi3FxBIrCQjgkMlTpzHheIETO8CiCXTYow13gC2ZmI8pFYmwtaYQEfOiEUpTKNThx7hiGx4aw/9T+xGlT+sFN+j1I8BaI9/kBWBNSAoR6poPAVDMglAnBE/POk32SNwlFtQg9RwMxcOFJoaQdG/GNeaQY3u7SXHWzojpzAPmaEJx+IQZdEoTjPJZTJG7BYrs8M0CSt9rSMoyFF6ZkQl95+QYzbG4HAuHM6cgquQKrymvwzovPs/r4a6VFiM/CXBQTMsjXWlPnlaL6po9CW1QF52AX+g68CvdI72QpX2Zvz6JV22GuX4vmZ4hfkFjMWdNqmfQxq0iY5ETRn821q6A1F6Gidj2UaiPa295DIJDYj0YQFSTAQjQSR6BTCt3eI5D4rYhBjFhAgoJAGKjsQkA73Tfkwfi70CEC3Wotfl38YfTKzWgLJkTN1h1vh9TjRcdaNexDMZRZvVgScuF1XQ7W9NjgkItZkGNoqxanx2bgH8SEADlHUVSBm/tdE1boYdc1QugOQG9thmAKWTGqVMJRXQ1dJAK/SgWXSgVyVTTb7fCLRAiTWNHRozDZbPCQjLVWC4dMBjURycNhaNRqFFdUoKqhAT8dGYFJKIRq927cuXYtnjl6lDk2DvP56DMYwItEIHa5IAwGIZyiiCgRCiEKauF1yZATLcfgeAgBsQM3rPfgjG122+Yqs5mB/AaLGcVmBfYNtEAiFOHehvUIxSJosw7h1ydm11KhdAdPCEgEIshlCoQ1OchxboBbr4A7MI7Q8cOIFHTM+QgZ5SrkyLUwyZX4RMMWOF02HGg+gD+88wcEkkCFogmk9zc2CRjm7PX63WAWoaSLAVLygb/0RZXwWY9jM6tiSJ+DcC2oCPIZ9uHYC3gxSnDlbuSly1YhqFGhfYGlj8QjWFO3HAfOLoxHIBQI8NDnvoZv/PVnr9wkpDgSfXAFg+SHMPeicbUGKhCJse3vfwmVKR/9R95E8zM/QjQcRDx6IRKX6diKVu+AtriOlTnGCEAqlSCFPbbiJisS+AKYq5qgtpSgonod5HItbNZeaDS56Ow8hFjs0nHEBAK0HWmEq9MIVXAYNUP/C2UsCml1K+KqS03FboufZmDk2bV3YygnDxp5HE4i7nldEE9M4EMn+nBqhwn2fgGkFh42nBzFbypLIQ9FsabbCrmWQ0utHp1uklqapTGnKBmaOuqwsqcEz645CodkurR4VC6Ho6EBAVqgOQ4itxvmI0fAT0rTE+9gishTqqPxHI7pUvZkwEcVBJOLPN3/REa/a9s2VJSX47uvvgqDWIwPrVuHg8PDaB4eRpxPJZQqGBobwen12D3V02LyoIVvvImYVw3b8Xrcv6EAT77mRg5fDHnJCPzlJ5nC4yWNykYlHogkEXaJG0yF+MSK7Xj08KvocYzj3vp1+LPVN+MXx97EEyffScu9N+oxw3FwLcoMemxsMCAmUMA3MYGD8RcQzZkdsND4iMRJYIOqNj7euBl3NKzFr174JX79UoLUzI1zwMLEXTN9RK7ofrNHEOYYygU1xWQEYVPaEQRajHd1vn9lhq/oVbxOD7Zm040457AuWIqZfWAqVXB6p3xxZjgnn7v1I/jtY4/Am4W+0h1CMkKQtFZOd78rtR17WWoMUBrzsfyjfw2+UARHXytOv/BzBBzTCWkLHRMBBLHGgM5Dr4CXl3e+O55AALFMBbkhFwWN62EylUCh1CMaCaGvr5mBgsqqdehoPzDrEMQTOhw+0gBZ0IcKzbPQxvaDFyGAMD1NpeHi8Jn06FlZh6BSAo04iMFBB0SCGMoFflSMu6EcDCEu52OiVIbuiIIpJ1aOu8GnRbxeiHanDEPyuTlW0ogIdx5cC0tPOX47WAiubBCelccR0TsQ0QhhX7qUyQ/zYjHwo1EGDOi3tr0dEvscwktJ0mHSDZdmJxoFR/vNYqS2bdUqbF27Fr/aswcb6ushkcnwYmsr4w34J8smXdXViJnNKCE+gkKB1lAIkpdfZnoLpI5oPV2HuN2IphI9XMNR3FkmQnCgB4eqe+BDBF5pEEFxEJBPAJPaElMvXqU+D19YeyteaT2CU2N92FBch1trV+F7B19CMOCH3e+GZw4jN2lUhGX712GstRYbbtShqE6EdmcrDmsOwsM5MBGdXmY5282zIqcUn1l9Kw68ux9vvPAHhP1+JhH+fm4pAUKduWFeAc0EPODmFUGY8Atx9KKc3ft5ohfPLfUMLN+yHScHp5ezZTpXYgqnLtDwSyWTo0afg3PHj8CzQI7ErB+OkwqHxCm42mJGs41TV1IHU0UjjFVN7OvO0d+O9l1PIxpI/8Wa9vVUKEAAQZJjQeeJt9huBEbk+lzItEYUN26EXK5hwCAY9LKoQXhKmiodgMA6jQgRsWkRLLFBOtgLsX0M6t7T4JK1bgA0AOyFZnQ2lEIpdEEn8TE+EukeGLt8CAZ4OJuvg1IQQ1PUCZ0ziKNmA4T2GFxCETZFbHhRnXdJajbVXCzpL8Gm9jXY35qHPrccEWEcIWkQrmWt8DSJIahNzLUoGITI5YLE7Wah/jkbIU8CBskvfQIEVCXgdqf1FU5RhdX19VBptXDH4/jIhg146tgxhHg8tNtsTD2RIhcho5FFNyjVUXjiBIo0GmbIJBMKEQvI0dlshjzXiiWVQPk+MxqUeZD6RWiW9mJIMQiP2od+oxVBQepzoijhjWVLoJMpcXq0F5tLG1CgMWF331nIhWJ02IfRZh1MyPnP0AocBlQOFiDgkwEqMzbX5mNifBinLX2wq8fQ7RqDO7cY8vEB8GZLM4aVUMOAHUVFcLS3I2CzQSWV4vDhw5iYFH+a87pcRxvMGUGghZ/c0C5tFwycEvAAjKSYLgehZUyOQbf4OpqqxaFejhkoLi7Hyh034/l3Xltw93qVFgQSqOZ5IU0llUPh82Osr5fZA2ezJYxMBexdlqxKyGb/2erLUN6I0g13wFBaj7HWoxhvOYKJ3hYE3QkFvKw2lSrBL5DLUdS4AWKpggEEdV4JVLnFMOZXwphTCqXSgLGxLgQDnkmewYUFQcAXorxyDeMgpNvoK4j4CSEBB+lgD5QDnZCS5TIvBHUkjMECPTqqC5CjDMGojGDYJWYlzlTVlGykg1BmCMLqFTHbeDJ+o/8u1IVw+mKCYoqBqQNyrBi9Ee3+WrS0i8FzjiMuCiFe1gdJ7hD4EENmymDOCRxQuSJ97SfcucA5nYk0QwZGHHVlZdCq1SgqLERpcTHCPB7eOHcOZ8YvKDrGpFIIpkQq9OSUSYKFQiEMJSXM94FPAk4BMdaO5KN6wAKhmo/xUSfOFffhYGUb3NLZeUlmhQaf9yvxtDyAeyz1WBkW4t9Hm7G2rAGuP76EPQYRAnzA4vShz6CCXZlQtZza5BEJctwaiHxKaArlUAk1CFiMkDbl49nOk1CO9EA6kaLKKqQGwnIGurihIeZAvLy6Gjk6HUr1ehSazXjppZfw3nvp34Pp3qtXa7sZAUICGBC3YDo8mO7rmPi/ZASBlBTTBQj7etWLRMCrddWvsePqzTngFRRgwp2CtT6PsZKIV3leEexux4IVG01qLeJDI7CNDc9jBDNverWNktI9CYnagBu/+ShEtEi/+wIjHpJ/AJniZL1JpYk0Aums0LVbvg316z/EdAS6Og4BfAHKq9ZCKBRjdLQDXo8dkUjqcUilSpSUNqH13J55D5PRAHgcgohA3tYMxYlDkCnCaFlRAY9KDj6PQ6k+mCAeOiXT3ltKcQwWTRidtsRiKBbE2f+L+HG0WedOL/AkWnjzbsXIbgs4SxCS1VbIHKPQ9x6BgB9IlEdStUNQnVbVAxsEAQCKEkymEDjiH9DCTaBhAY1STUqZDHyBAJ+95x5ojEaWevjpnj3oI/AxQ6PnUigWw63XY/XKFbDHvTjlC2H1OTFueVeMWNiKEzd14JSvH35ubo8UeTiKu04OYLAkDw294xi96yZ81CXC2yf2oXj5KkRHR/EfMifWtY3gjYb8Wc+YRJ/iags89WvBU0oh4fFwv1yN3X3n4Gh+F7yknkISHJD51+goQCmaSaBF56dWKCCVSPDQZz+LXJOJuZT+8Ic/xChtex23GVIM9RzBggQ+56ARCVCjFOEzxQqYBRxaQjw83OGEM8ohxLSEiaI4vxQDKSiSUNJiW5wBoVCEvIoqWHlxhLJgoqSWKxivYbpl+fzneXX9Mpx9+014PZlrLSSPSu+SEKltXiMSyBfPBo8vwOavPAxzzUp0vPM8Tjz+3flP2Fx7UI6CVlkCBvn5oGOKZUoU1axFzbrb2Tukt+sY9MZCmHPKmMNiLJZYMASC6eXQxDmIhIMIhfwIBNysZt1gKERb2765RnHJvzN/j4AXEz3nWJkkz2RKgBZxmJHnwE9EkdSSGAq1Idh9IkwEhAjHeMx8TiqMY8glhkwUh0UdZnoJfU4J+51sxDMIpiDoucqWwFVcC148Dl4swngGglgEqsFOyEd7wJsawSKxpbACYATWGapaCATQYk2/aTGjsPcUqeXzA0pGETiOCYbJpFKIyNSK3DKjUeaYSQ6JszXSIvnU3Xdj+9q1zHfhyeZm5sDoDaWoKKKyN2EAkHngLq6DqLAa5TIVDkeCTH2RznvZYAc2RnLwmyNnoDaTsRMHiMLgTc5/ciwPHOrGq0sKsKx/AnpvCC35Wgxp5bjHGsWaj30SY/094L38OpZ+57v4zp5n0WMfhTcUQCCaAnzQPZmcCx6Pjc2TV8bu03v0eRC0HcPBjm6IA/JESsXlAtfbO+u8qJVKfPruu5Gn06HQYsHDP/gB2lpamNkUqVgmZcXnfaNehR1m5CAkaxhyZUJ8uUSOOlF82i0ZAg8vu3j43ZAPnkmkmm4EgdwN9/WqFgHCVbjg1+ohS0srkF+/BEe7zmUFJCikMviCCyujpLnauXoDOg4dQFdX+4KnjqIIRES8FkGC3GDBDV/8V2gsZdj/yN9gvPUYYpHMS0cvmSwqT5TJwNNqmciR1lQEQ34FCuvWQShXYmy0CzK5GkqFDjK5BqGgjy1WAr6ApRMUSh0UCmIGXLowRqNhhEN+ZiPd03Ms/evEcfBPjCHkdWG87aL9TCbwNBpALgWkXoAfAQQRZlWfqw5DKY7D5hNCLY2xtTgS5zPhJGdAwDxYpjatX4GVx1dij96KaN4Y4roEsTCsNrAFCbEoREE/ZNZBiD1puD0SSIhKEoJLU9li9B6mqgSy0yYNA/pJEhGJhzB1wSfwQP8WiUBJQkkNDSgqLmaCR4Pj4+gfGcGQw4G8vDzk5+fD6fGgtbd3RtBw344dWFpdjaFAAGccDpwZHoYjKaFNCzwBLeGF6E9UqoA3vwJhlR5mUwEk4wOItx+DJBZBOBpHUbgJvZ1KKI0T8Nh9CGjcEBrs4IsmAWOcQ4zPY1UdHNl+xznE+Ynf9P8rc0qwpWIpXKEAbqpagbfaj6HFPoRxnwsd9hFE50gdxmRKePKrEOXpkCeQozQaRff+/dDb7XB5vQimAl0z3HkKmQwfu/lmjA0Ooq+tDVqFAidOnIDLtTBfmvRv9My3nCOCwMFwSx6+3zkKpUIF2cp1ENfVI9j+NEQxG0IiAf7tTfJDj7A0Q7oAgcg+J0YUH1h3w8wv1/t7z5LyKljFAvizEEUgbQOqpbYtMG0hFUtw47LV6Dp+FK2tCcW6hTRaTKJRPkjj4FpqYqUWG/78P9B38FUUrdkJa/tJdO/5PfwTCwyREoufShXpt0QCrbkYhTWrYS6qQ5ALMz6BSCyDQq6FUmVkxEOvdwLBoIeVmmm1eVAq9SyC4PXakZtbAXJknNoomkBfZS7nGIaHE66QczVKm7iHe+AZH0A0hRAP25/sodVq8MxmQBQnliAgCjDGvUwYh1YehU4WZVouJKxm95Gg2qUApji4Cnh1E7ytYoSLhoDacwjUnYUvTwUxqf6lKMuca/xMQyEqBiIyICpKRAkCAXC0KCd/6MuYvnjpiz7JR5iz4wsbqNVqFBLnoLQUdpcLAzYbVq5ejbhYjLcOH4Z/amXE5G6NFRWoLC2FjtwbNRr8eN8bgNgHCFOnDuISOXymfIh8bug9VCUigCccRI5cDfg1iPry0PtsPapqAdu4FT79BIK541AU9YE3Q59TT1EtkWGFpYK5ga/Nr0KZ0YJOxyg6bMN47uwsXAG6jiEVEFUgqlAgxHGQNjejwGCAc3wceUYjvH4/xih9M4+2tLISRbm5aG9pwaqqKhw/cgQtLS0LjnbOYwjz2nRGgMB6yZXD+vEifOO9ASyR1OD1TQ/BwVejTD6Ir+V/BkIRh1/+MY5HnvIhFE64OabDQeh3SNBhJ6ONa0/8ZV6zt7hxVmeAzxfg5js+glfPHs1KvyqZAhKRmAkpLaTJpTJsqW/Cobdeg8023WY3036pcoHIitdKI/+ETV95GPt+8g0oTQWoueXjjCS45+G/QsiTwfyJxRf4BUIhW9TX3fklqAx5cHls8AfISImP/II6iERSDA+dY5UJlDK4WIFFJJIgP78eYrEUo6OdMBgKoFIbz09dkkg6PNSGiYnpiogXzy8Xi2Lg2G5Eg35EWIncHIJOFIImoKDXMyMolm6QugFBGKShIhLEmYYKpRtSNUM8H7HuD6O7PRdCHwfLUADSWAj2vGH4N++FLH/+apPTjkMiS+RK6JGCm5iMGlAEgTgIlF6gqMECuQfJ44nFYmbdTeH33MJCfP7zn8cbhw7h+benixhR6sGs10Nu4eHDW+5ASAQ8dmwXvDPwRxL9Xyiap/8iDYIoF0epOhcCzWq858lH3i45miIitBzxQWCwApv2wZGfvoW8RiKHgQy/FBp8avk2qJQqdNtH8fNDr6DfNUXWmYEDdQJ8USNS4uBgAoBROiQeB0UFyIwqEouhpqgILXOkHS6+NyRiMcw6HeKhEP7i3nvhsNnws5/9jJmXXUstJUDYUljHfa0qhIcUeWjbkQeRXIQfhu/Ff03sOD/2P977C8g9v8fh0zH85f9zwOVJHyCcGpVj1LNYwXAt3QjX0li++PVv4We/fyJjVC2gvCoHRPk8CCkUSSHIyUqbBOmWYyY29G8Resun2e5csQF/fPY3WcshUrrhWookbP7KD7Hvp99khESBWIZVn/g7FK7chhf+YhsTQpqT/T65mBLhlNQOCQAIhCKsvPlTyK9qYl/4g4PnWDSAShKJ3GUb72WVCYJYFOSmKGCy2RQmnoywcHHE+YKEQJBEjsrq9ZiwDzDrZq3OwvpIAoSuziOMj3Bp4xCPxVhUxDXYkfF9RVUWIO4EpUsIKCjs542SUt1CfAggCW7C6KntCE7wwYlicCv9UBlPw1ywC4IZ/ArSvB0T18PnTRgr+f3gnBFwo3Ggl0r+0u5lQRvKKHz+sY+hbvlyPPzEE7B5PMxhMar2AdKEKqlBocXX7/4M+kJe/Ork2yy8H5lndZBaoYWqeCeOe8vB9yrxPa0fosf6EHZE0VrUi1eXHUFUEJ3XaRP3YmtRPb688S6IBCI8/O7z2DvYhmhAjkhwsvqBUhhUqTE2u96HTqVCSW4umru62DkTr2U+HCiqvrpn61bcvn49vv+976Hl7FnEJrkgC7pAC9w5JUBYmlvP5Uni6DQpMfHRIkAnwc3am8AN3wOrm4+avCi+v/KbEIfb8MwrAfzHf/vgDy4ChAVei8XdJ2eAIgkFK1djYCKzr/UGdwC13iD26pW4ZdyNg0YVCnzkusLBLhZAHY3jlFqGBwcm8HC5eV7zXiFToefcWUSzoBpIByaAQEDhWmhTAUJyPCsf/Fvk1K/ByacehrX9OMK+FAuwWMy+snk6HeMZELnQVFQNXU4pipdsRCQaZiCAFA91OgtEYinCIR/6+09DGI1C7vdizYl9OLByM0r6O2Fw2NBa2QCTdRQarwvnKhvA5+LwKlSIq/Sw5Ney1AQBEJlcBTmFo8FDKoAQdDtYBMTedRqR4KWKiZnMO6u8ILCgkCdSDvSTooY/ZCwH57kHo+0x8ArHIGscAk8Qh9hth3K4C4JMK0MIGFCtPoX4KbXgdIIjjgEpIxKRjjwDKL1NFJLsVunOOl25ubl48PMPomtiCM3D7dBpDege64dj8p4xKnX467s+hZPjfegLejDotGLYMzGvRd1vKIE2tw5aQQX4QSkKBBLw2jyoHRjF82VvwRvKvMT50007UWusQHNfH7ocDti8XkYuZCWN82jVhYUYmZhgAIFSX74UqZjZuqPIwhfvvRctp0+j5eRJxMJhloa4Gm32FIOAh/EvliNikaFAbkC1cA26hvl4bqsXFZGnGID9u++78eLbCYvOhA7CN2a1eyYFxdOjV9+k6WpM9uIx05sByj3XNC5HRKdB19D8Q7AUE9CFoxDHOYg4DhqOB3d+Hqrau5kzLgX2T6pleGDIMW+AoFOqoQqE0NeWvQf2WgEJqQACXbHK7Q+gYMWN8Iz04Mzvf35BC4G+pBUK9sNjwEAAS2UTDHnlKKy/AU7nCPx+NyMfymUaiMUyuFzj7O/JckVhNAKt24HKrnPoLygFPx6H2TaK3sJyFA90QxIOoa+wFKNmC0TRCEJiKQMgGo0ZZnMZXK5RFpFQqU3o6z15PoJAQMZrHYJrqCs1qEnvVpx5K6pyMJsTREYJDxCGEkCBn/hqDuly4cspBd/phUAcgcRlh9iV+eI1bSC04BABl6IGyRLGixch8u/wUYQBCbBwJZoS4OVRpQrQUN6AxspGHOs+g+rKRgRjEexrPYZgJIQ8nRk7l22EQCqDSK1B83AXDgy0zWuE3oJqqBWFsMjr0M9FsDovhIHT70EX8GDAbYdvvgRbStUQ5yAiQ6nBgBvKyxmp0ENmUmRmdfQoIyfOp9FCH4vH4fZ6YTEaMWyzsZREuk0ukWBNYyMrvew+exYramtx6NAhdE1GKdLtZyHbzQ4QiGlbKIP1ixXsGPTi1QYiOLnKCY0whrf2h/DPP/HC7qB6Hap4AAAgAElEQVQCpdkBQiTGQ5ddCk9YwMRGZsrZLeRkFvd9/8yAXK5AScNSDAS98Prn9+V3w4QX0jiHdoUEy50BnFNLUckTQU4GO1IRNNEYvEI+bh1z4RfFRoxJ0ncUJfBSmmOBxONFS/PC/B+mXi1yaqQyyKvZZgIIVI6oK6lFw52fhliuwq5//2yCXyASJX6ITGguxtIt94PIjk73GCKREGQyNfSGApYGGB5qRTgSZNUGUxsBAnnAB2kwAJ9CCREJ+kyqq0REEsgCPgRoIYlGII6EYdNfiPhQ/zq9BQq5DmKJDN1dR+H3u5gMNBEQw34PuHmGsuc1/1SySZETmgsSeiJwwCIKfsRkCkY+5M93oZptAMyoIwEMWNSAWPAEDGYRPiIjPVBV3pVIOVDWWAzwdDxgUgKC3FLLCsoQJeBnsuDBu/4Uj+16Fse6TzOgYNGb8dHNH4JEocQLZ/bh3d4WlqJIp8XEUnAKM8bqV6C84zh49hFYlFp2LCIXc7E42h1p2MqTzgQjJE4XVeJaW5Gv1UIpl6OioAAbm5rwg9/+FmPzVEyk+18lk8ETCGTEV6C5MGg0jBgpiEZZGsI+OopHH300nWla0DYpAUKtuY7pICTvKk4iwNhXqxGT8fFspQc7NAHsORLCl/7JzSyREzqKySqG6RGEp598DE888RioSDIDAa8Fndziztf3DGi1eoQMOgTTpwmwEyb+ATXiGjHX0cn9L9zRiX8nzXziImTy7rx9wzZ0HjqAc+dOZ22SrzZImAkgJE+Qcu87/vYXUBgteP2Xf4+AZwIylR47P/mvbJOhoVZ4PFbIZFqUV6xi/ghDQ+fgdo3NKx8784ROl2ljHy08HvT6AgZETu1/AQMn3km8j67ky4a4F0TKrK5ODJ18BRS2lP4CGd8sTCY5yIiHHJUypsGe55wcQEGL9NbbjIeWckchwCsggueFf6VrRWWreo0Bf/HAX6CssBz/77mfonO8HxqZEl+76zPYsvQGPLTrcbzckT74ZsTBKdebnnNKP5VqjLAY8tHxngqVzTqc3vIGnBfzPsh+m0SoYheBg4GBaXNMfAUqu11eVYWvPvggfvTkkzhw6tS854zmgFppXh4cHg/7mU+jvUmoiu7vz99zDzYuWYJvf/vbOHv27Hy6SXvbWSIISRw/pfJYyINcTAA2oZ2Y1Fhk/8dx2HwTVTFMBwgEDp544pdpD2hxw8UZmDoDN267BR0BDwbH0/gSmGPq6CFXyZUIhIIIZ4FD8OCtH8a7L/4Ovb0JYlI2GlU3RCIJKeYr3Qgg7P/Z3zPRoPONCQaJAZ0uIYcMYNv/+RbkagNCfg+kah3stgG4XGMsYmAyl7JUg8djx+jIwrUjZpoDqmwQiqQoKmiAfagDrQf/CPtI9q5DRnNPL26jMcHFoDmjaAKV+PFis5IZ5zwWWZlTVYLbDY7IcnNVJVBFoQfgbFfhJrr4ZIheYwZ4Mir5uFTGoqG0AQ/e+SAGJ8bw+un3IJBI8Ccb7kS+KQ/7+s7hyHgPBlw2OBbg/WGUqVC2fCtcHQXwvyWDXHMObcUtEHrDoC/cS/T6yK+iv/+Ch0WKC1RdXIwv3HcfXty9G93DwwiEQrA6HPMmMBNQoOjC2d5eyCQS1g+lJebTGsrL8ef3348nHn8cXa2t7MNneHiY6YIstM0IENitxXEMoSdbUlmRIEPirxcEmWeKICwChIVeosX9t+68HQf7uxDMgj6CUiaHQaXF8IQVkSyAhB1N6zBwujmrkYQESOCz8rkr2QggnHjuEbgpH0wLHCPiKc4DA3JTzK9YDmNBNYwldexrkDgGobA/oVXAgIENNtsA4vFELj7bjcol1WoTtNpcOAY6YB1sR8+pd7J9mIX1R/NG+glGY4LwkiQyTvIT0u6cFgrSMLDbEu6LlFqYbfGgF3QSGKTh5ZT2OLKxIYEDNcAT8djvVEKQTTVNWL98PQ60nYBGZ8Tta26CLxzAWMgHazSAE0NdaLdnLn1OlTn5+avh5NUh7C9ETV8YJ4PtCKicEPtckMZ7EEEU3MhIQko5jUYW2R/asgVuEqWiishwGHuOpx/9SB6Cyh5z9XqM2u3QKpWsv8A8xJioH5FQiK2rVkEUi2G8r4+lRfbs2YNBKtHMsM0AEOq4pMcC9TvVk2EqJEi8vi54MWxmOgiLEYQMr8XibrPMwKbb78He1uaszJFSKgc92C7f/MJ7Mx28TG+Gvb0NTmcGpjozdEpqi1fa/pkAwrm3noXV2pUACFT/T2FhoRhlS7cgr3wZhCRj7XOwKgIiCxYVNbLQ68hwO4Ih7yUcg6xcsMlOCBTo9PmMfNh7Zh/Ges8gchGnIZvHW3BfBBLUaqahwKocKJIgdaUXTSD9Ao8b3PBw4kt2rsWCinQcHAMIVyWlkO5kUUSB+AkygKfhJQDURY2ezZqSGshlSoikMnz1Y3/JeAmHe1tgMuXh2eZ3cWw0QwdYHh9hUR60gkpwhVsRcctRKgNOj3gRi41CNGGF5sSL8AvmB0TEQiFqy8rY139RTg6KLRY8++absGWga0AAgSIJJH8tpFLgDBQXSywW0A9xFbavWMGEmV555ZV5RzhmBAiJBMP0rG0yA3ghcDX131NzEBYjCOk+OYvbzTYDpWWVqN+4BS+/N12UJdNZo3RDPEtxfDF5SYhlGO9sh3+ehMrZxp80eKLfl72JRNj8lz9AT+tBDHQcOX+4qhU3o2btbYxgODrWhVDIN83hsqxsJRMncjoXqLg4ywmKRDIUFNZDodDiwB9+Amv/OUSm2Dxf9rlZyAGIyKjRXBCNIpAg8SaiCjM1ImqODCdq7+cCBtQHgYMBKn1cyECv8L4smQ6AKh9yZ76/xSIxFDIF1AoNPnvPZ5GXV4hhpxUN5XVM4Oi1eXAV2BnGxAnOASdCTChDRFOLkGojwhE+HiwA3nzmd4g6XgFH1ynDJqeFXSDATWvX4p5t2/CNhx9m8tXzbURupJnJ0etZdKAvA+MnAltksBUJh/Hl++9HkcGA//zP/0RHR0daw5mRpJiABxeSCkxFy2SAUChEMBSEbdQ2hQyUiCIschDSmvPFjTKcAX1+AWIGPdxZWoSpZNEfCmbF+8GsM0Ds9mCoo23eKH12kJCwh74s/g20eBHHgFQCNRpsuvfrGOk+hcG2wzAWVKF69S1MnOjYrt9AnlcEsULFyF9TGwEEm60PbneWSvjOd86DRCKDVmuBWqlH14m30Xr4JXDzzM9meKtdlt145eWJqAzNuSCcUGScyk8gwEqktcGBRPniXC0KcKOTpYxzbXut/zulH/STPIU5ZEF2rt2JP/vQnzGp45L8Yjy8/0U0j/fB4ffMXt5I4CCgAZOpntLiPCnchlsRFHEo3v1vqCwsxMDYGNMvIOOqhTaSn/7MPffgiVdfRf/oKEsf0Njn2yiyQBoLLX19LFIRjkQQzYBnsLymBn92++147eWXcfzwYWYi5XA4mDLkxS01QDDVJbyeJ1tpdSlu2HwDGlc1MMcvv8+PfW+8h9PHT2N4YJhxFShduphimO8lX9x+PjOgUChRtmwF2ifG2MOx0Eb8mpKcfIxMWBEkItgC25LKWkg9Xhzal92cOK0blG4gD4esNFqgZLKERwKFwCcbAQQiHiq0RgT9bgycO4ShjmPMflmsUMNYvgRKc8KFMdkuB0AgsyY5lUhqLRg4d4ClE1y2zPOoWZmzbHUilye8HUg/gkiNYn/CxCjiASZs4Ig9P9eiRBw272RK4TK4cGfrVDPqh4CCYrL6YXphwSXdVRRW4I7NdyBHn4NVDavxTt8ZHBvuwonhLox6L5IsjkqBoOoScHC+03gcsZ4e8Ce5BPR3k1YLu9sNnVIJfyjEwv4LacW5ufjw9u3Yd+IESI7a5fOhva8vo0W+rqQEoxMTjIhIfTm83nlXChE58hN33gnnxAS6zpyBTChkOgueKZUVMwMEmgkesGRVI+QmOaprqyERS1BYUID3DuxHfV09+DE+fvmTX8E2ZmWs68UIwkJun8V905mBysoaWBqXYs+p7Pg1UJ22QiKFNxhALAs180ur6lGj1uOpp36VzumkvU1WQAKFLMnKmLQLCCBQBGFKq1xxE9My6D27H6feeQrhi5QHRTIFFKYC5NSsuCwAgTgNZnMJFAodepvfhWOsFyNdJ9Oeo+tmQwIGVBFCFQ9yOTjbCLjeFvDEafATqKw8GTWYH9n9upkeNlApGTJMairMARSkIik2Nm2EXqvH1pVbEVUqMOJz4rlTexOkRvJUIJ0DEkOaoXEUvk+RBqDFV6tSIRAMngcMXuKELKBR6mBdYyOLTlSXlCAYCuHZXbsy6lGjULB0xoTHg8qCArQTwJxno/RFTXEx01noaW/HztWrcaq5GQcOHMCLL77IsgbkPEmViiztQToIrJQYHH74q4fxi1//gm102623YePGjfjHf/pH5he+ZcsWHHn7KPa8uYeBicUIwjyvzOLmGc1AUUk5BqYb+mXUT3In4iMwJY8scRKqikqxylKC3/72Fwsa18U70/CoumHe/g3J8jti1xP5cIYmEIlhzK9C0/YHcWrPMxhqvxSEUYpBrNSgZN0trJdsRRBIFZFEj+yD7Tiz93fwTIwinonLYVZn/DJ3JhSCI9Ed+qGvU2L6E3mP1AhTNG5iUkI5tTHiZR7sVeqennMKWOVMlkrOMgw+jw+dWgelQomda3biQ7fejzG3A995bRfaxqaYMV3UB5Op7uubk+8hFYtZaD9Pp2MVBtYMyINTD03gw6jVsvcO8RWqS0vxyDPPYMQ281hnuwqkvEik4uKcHPSOjmYU8ZCIRDDpdFCJxfjozp24YeVKltabBhDqzHWcTMChsKYSn/6rz+I3T/4GZWVluHnnzRgeGUZRYRF+9JMfobG+EYK4AE//4mkEA6HFCMJVeobeT4dNrtHBoABCIQcR2eymaJ/94lfx690vZyXVQN2r5QrGR8gkp5dqfBV5hVD4/Gg+cRRcmspw6V7HUCiNdAOVJ1OEIGlXnG7nFFotqMa6u7+E5refRP+5AymBk1xnRn7TFlRUrs2Yg0B6CRQtyMkpB0Vydv3vP8I31VVvHmO+rjZlXgoxcN3dqQWdCCiQdgCF2gkrxCY1Da4to78rP+Uk2kmERooopCM66gOq1dX422/+LYqLi/GdN97AgYEBtriT2iJrlB4nr4V5qiPSritramB1OhmvgBbmbHxgfHjbNty7Ywe++9hjaB8aYtGFTHkQW5qaMGK1opPOj8fLSBfh1R/9iEUopgGE9fm13IPFEfTUbkPtxhtw7Pgx1BXXwGw248SJE/j45/8UTz71JAix5Zpy8F/f+wU8Ls8iQLjyj8z74oj0viSmPv0k6v8TpyUUxiEWx+nevqTJFQos37oDhzvOIUrGNVloBcYcuPxeeLJEgqyzFMPT34f+LAopJU/zEpCQJBwygR5RQtmPfAJSTV4ac5VXthTLt38c5w68iJ7Te1LuQbbQ627/Apye8XmRFMmJkYAB6RkgHEHXybcZECGuw/u+ETCg0jciIc5FMKN8vJIHzkqho/f9zMzrBBlQICBFqYhUmQPiaAyzMPj59oUvfAE5RUU4PDEBr0CA4/398DscCVGkuXgfs4yOvropTE8LKXkt+BaYgqBDkYbB/Tt3Yu/x4wjHYugfHmZeDpm0XIMBNMb+sTHkG42Mu5Duh1BKgNBoruU0IkBRXIy//r9fwZFjR3Dz2pvQ3NwMt8eNypXVyMnJYfKOg92DeOaxZxEKhbDlps2LOgiZXMEP6D4E4ol4l/igugAMpk6HVBqDQJBaEU5nyoHQkgdblvQM6LhmrQEunxuhLJAgpRIJ9GIZRgb70Fheg6LcfIQDfnR1daCzszWzq05AgACAVIoIJ0Y4OplrIXtlUvBTqdi/MY3+BYZA88qXYsWOT6CreTfaj7yKWAphKSI2kvdCiEtncedBpTZCq8kBLxpjAkejvWfhdVy+EsnMJvny7MVC2QQM5imve3lG8z7olaIIigRIYP4PyeZAAlSleG1IJBI0NTWhtLQUnZEIKqursX/fPvSSONICG5UjEnk6HI3CrNWiJ0t9bmhqwtnOTtSVlbHqh30nT8I/T4fI5KnVFheja2gI+SYThqxWNtbZWkqAUGuqZUJJfAEPP3/659j19i6Eo2HGbgyHw5DL5ayaoaa6Bif2nsCbLxHBgsocFwHCAu+xD8TuBAyodC8ZOZjtpAkcEEhI1egevPWue3F4oBuj9uyU2VFlA3ES5it3Ots5UMGwXqOFSq5ALBaF2+WCy+WASWtAaV4hoi4nBnq7MX6xnDRTM5QxItsFQiGJy/AZAz4SnwQIpHZI21B1QpJ4SJNLkrFpKsLNNH6NqRA33P1lDHeewNn3nkf0IotiAgj95w7C7bXDVLVsxmkQCsUoKl4KXjzOohK2wTbGM/igNCaRTAz5LADPD8qcpX2eFEGgtEMymkAVomkQOLVaLcw5Oaisq8OW7dvx8BNPZPyVPnWsFEkgLQSqgqD0AH25L7QxkziLhckx37ZxI4ic+PePPJJxt2q5HN5gEAUmE4t+EGhI1WYACKSkmIBfPCEPb594m+k8t3deEFdYu3otTh5uxmu/e41tSoTGxQhCxtfrA7FjpmZEcnl01kj5iu0343hvesIf6Uy0TCxhIkqhLEg7p3O8+W4TiQkQjooAgTBRMjdbGoFEdzIQaZk6JrFUgdW3fY796ejrjyE4pYSMAELPqT0YaDsEbWEVcmpXXnI6BYUN0OnyWEXCey/8cL6ne31vHw4n/BMyqHu/vk/8+hv9bbfdhk9+7nP4x0cfRUtPT1Y4BTQLCqkUyysrse909ozdqN8v3XcfltfV4V/++7/ROzy8oPFSFUNhTg7ePHx42oVLCRBqTLVMBT6pnCiUCPEvD/8L1Fo1K3OIRqI423wWj3z3kfNySgmhpM345qLU8vX3ZFymEc/ELZjv4WaLIlBfRqMZkrIy5q+QrWYx5sDr92ZNlGmh44pzpPzIR5iTghNJEvyCi8oUZzxGIJCwBp4r5z3LIOUqA2rX3clMms7u+x0mJqVupwIE2l1XXANDaT1kSh3UGhPUCgNCPif2PfcDhEPzs+1e6Jxd1f1prv3+hK5/lqpjrur5fIAOvmPHDjSuWIEn33oLGr0e3YODGRMFp06bxWCAXq3GmZ4epm640HLJZN/b16zBHZs24dnXX4fD58O43c7kmTMhTdL63lBWhp7hYRZZePyhh5jc8/Qyx8kUQ8LGOdk4CERCCEQChHxBRlCkltxiESB8gJ6gOU6VUgjEKSD1v2wpAMpkMfCTPs4pjr9x03ZMSIVo6c5eJMGo1sIXDCAQCSOYZ0FUp4XyMtmqzjSl8TgfsTgfUYEMcbEUZLk8W6nijJcmGEyAhAWQscg9sbJpO6pW34Ijr/4PhjuPM/XFZASBji1XG1G7+cMw5VXAMdyFwbYjGOk5hXgWjLGumyfM50tYMi+QA3LdnO/7dKANDQ1YumIFeux2yLVa7D15MitVU5QusBiNjEdA6ohUkpjJYn7xtOebzdixZg2GxsZg1OvROzSEAwuIWhBf4eGvf52lXC8BCMmFf7obw9QhXfBmT2wbx+abtixGEN6nD0s6p0UphCTpMNv+AXNFEcgwqKi6DmOIZTU1IJRI4ayogK+yEjGFAvKuTmgPHkxnOha0DaMQRETghGJwctUFid6F9Erhbq93VhvbubonMSMiLzZt/zia33kKJQ0bGUAY7j7J/ruk/gYEfW50nngTjrE+hBdg0zvXWK65f6eSObJlJrb5AoDYNXdeH+AB0Rd1fn4+VBoNlq9bh8KyMvzkySfhW6CqIgPTUin7sbtcWFldjSOtGRKXL7o+aoUCNSUlcHm92HnDDfD4fHhu1y54MkhzzZhimPueSHg1JN0a6PdiimHuWXs/bnEl7IkpzS6RzFzRQPNqyS9ETk09TvZlL4owfuddIJ8FIh71hwLMbld1rhWqk/O3dE3n2hMwCBIw4ATgSGlPJM64VDHl8eLxRCQhg5fFhf54sFQsY7wEoVCEs/teRPWamxGNhHBi128x2nMKsegHSc0nMTNcT0+ChLiYUkjnVr/utpFKpVAqlfj05z4HmcGAHzz+OFuEs9EonE8EROICnOrsZLbR2WgEQDRKJf7i/vtRYDbjb3/8YwzNo1wydZmjZQlXXlV2fvlPGj5PN/GeXkNC5R2FJYWLEYRsXNVrvA96/3EcaRYkIgZXqpEugkQyOz15w8YbYRPy0TaQoR3s5MnEJVJMbNmCiEYDjsoKAdTLlGgJeKEMBiE+eBCS4aHzi0F8UqGQn+GDTRyDaFyICCdJiBuRFHIWGicQgCPFPoEAcYEAgkgEfOIkUAicXm4LWMxKGjagauXN4AsEsA6249jrv8zCiK+zLkjXgMoXyZZ5AXN5nZ31B364Op0OX/3qV2Glr/N330UoGoXD7c6aQ+wd69fj5QMHmH4BlVzHs2RSdt/27aCyycdfeYWJPBFfYTYuxIwAoayqbApNcer9MNX0OVl7yjHp5YJFgPC+fnCIT0CpA0olZDuFkM7EEQeBAMJsXATqp2b5SnR4nQt+WOMKJYIWC8KkL0CCdkolYkYjilQaeIcGoD92HG7rGAgcuJc3sTJDeWcHxGmWNdGTlOAYCBARq8BjZY3yeUcMCADQGGNyOQMBUxv9LaJWIyaTQeRwQDY2BhmVNFE4nAAChcQX0ARCCSMuXzf2yws410t2pZQNfY0tEGhlc0iLfV3ZGSA75QceeABeclcUidA5PIzODPwQUo1aIhaDiI0jdjuMGg3zW8hU/+Di/lfV12PrqlU41NwMuUyG7qEhNu6Ly7tnAAiNXFlVeYoxT+UdkOHjBYbCIkC4sjfmlToafRQlAQEBBIocXM1GyoozyS8nx0Wujx/5xOfwv6//PqtDJQ5CRKcHJxJCKVeCLxJBQ9ary5vQkmMCx+dD6PFA1tsL1anmWY9NxMNIXIS4TAUIJ82TMlQ9JIBgveEGhA2GSwACDUJit0PZ3Q354CB4F1cyENM+HWvhrM7k9d8ZZ7Um0jQZCtZc/zOweAZTZ4C0gUiAicL3d913H053d+PtI0eyNkl5BgNzlKQqCKvDkbUKCINGg6VVVSxCsbqhgVVsPPfWW+fHnRIgNFgaWYohHucQCAUg4AuYMBIxDoR8IRpWNeDEweMQ8kkcO9EXAYTFFEPW7odroiOS851J4fBqDZDWUJlsdl0EGpvBYMLqW+7AawffvTxD5fEQF4nguXEbokYjTGIJquVKvOeaYOFGeXs7NMemmx1xZPYS4RAJ8sHJ5IB6slQxQ2Aw9cQ8NTVwNDRccq7648chHxoCfzZSFaUcCCQshsjnvleIw0HpBAIHi/M193x9ALcg8aWc3Fx88jOfwb4zZ/D87t1ZmQWqfhALhUzOeV19PbqHh1l0IRtNLBJBp1azaoqv/MmfMKMnMo76zbe/fakXQ6OFIghliPM4/NN//CN4fB6CgSDeev0tHDtwHP/58+/joX/+VzhGHYhHY+DiHMKRMApLihY5CNm4WlepjyS3IBSiFMKV4xbM93TTiSJQnyZLIXh5ObB7XFnL4U0dq3PtDQgW5LPIASkbst8A7jDlYSgYQPfRQ9CeO4eQz4s4hLAuWwvnspWsIkF7+jQU/f24tbcX4yIRymiB5vFwSq+HjyITJSXQBgLotlggj0RwqKEB9+7aBVkohP+65x52HEEoxKIDuuZmCHw+DN59N+JCIfiRCMROJ0x79zLlwnQal5RmXmTfp54ueji83oTo1OIcpXNLLW4DoOD/t3cl4FGV5/o9M5PZM1kmkz2EkAUCBCEgogTCFlCkgIVqK9pSXNBaS29rW/vUe1u0WsTePuqVWu2VQiub9CIqIlJBZJHFAGkgBELIvq+TfWYyM+c+3zkcSCDLJJlksvz/8wzJQ875l/f/Z8473/J+4eHYsHEjPj56FF+kpgouAnfIuEvgUlCj1WYTLBcOh8NtCrCUfrnu4Ycxe8oU4bOzXZpjYtgEfsH4YFxuluOlt17D4S8OC9WwykrK4O3jDdKzLqsqQ0hgCDLOZ+DcqXNotYsxCM+/+CuBhZBvhqQst2/fjO3bR2Dw0hB5e0hiRvTTZqN6CJ51IbgKW3fqitSPr68f7po1D41yDmezMoQ3krub3c8fdoM3Wv2Ngp9fIgk0TpjOgPBW4Py5NAT7B8GZnIwavR6tVFed42CjN57VijHnzyPpzBk0GY1obWpCSFUV/p6SAkdsLEaVlSGivBxXIyLgkMux4NQpbJ07F4rGRvhmZAjEQGrNo0ahOTwcuvx8Mc6gh40nfCh4kZnN2yNHQYjkiulB9HcPoWeXD3MERo8ejWXLlyMtNxdePj5Iz8oSXAXuavGjR6PKbBYICMUE9SalsaO5dOhiuCs8nn80wQ+HGw341avrIaOo8IwrOPP1N/jhj1bj979+GctXLUNMVAwOfXYIZ058g1bBgkBZDIwguGvT+7sfqpwoiRoNNWspxSGQJaG7plQqMWXKdEyZPRe7vtgHc0PfgvK6G4/+TpE6drsCdq0BrX4BgN4bUeHhkCUmosbhgJUINMfB4nQiMj0d2UYjntq1C0fGjUNkQQFszc245u8PLiEBJSYT5E4nogsLUaXTYd7Ro9g9Zoyo699Bo3gEri/fcMmEToGLnfTvyvqHzTX0pqivB0+lgPuBXA4bnNhCXEYgODgYycnJyC0vR8K0aThw6hRKKJ7FTY1qLNCXc0ptJHdEVh8DJjsJUpzIx4+NQrMDWP/H3+HNP76Jx55+DG9seBMPPvogPti6Cxq9Bn6+fqiuqkFjQ6NAEJgFwU273I/d9KRQUj9Oo89duxqLIA0UFRWDOYu+hauVJTjx7/axAX2eTJsOqLqiA17gfY1i8aTrroeqWbPQYjIJV6praqApKYGyshLG2lq0qNXwr60F1VUjcmG5XnSpcur5/MgAABV3SURBVNEiWJRK6EtLob98GXKbDd4NDahRqcC7IW6h03UTSaDI/JFcddBuF90JFGvQB4lqd54t1tfwQUCj0SAkNBShkZF4Yu1a/PfWrbhw7ZrbFqjTaAQrJVkTvLVaFPWyHkuXQYo0WwpS1Gp1ePwnj6G20ozd7+8WFiHmL9zMamAEwW172y8dETGwWKiC4tBwIbgCgiu6CG37kcsVWLHie3D4+eLjI5+7XBPdlbnYnVRASQkEmMRyzLc0J71he1AnnlwV5sREGDIz27kRXJmLu64Rvjn3YM7uGtej/Yg+N/DZ2R6dBht8ZCEwe/ZsPP7UU3h9505k5OQItR/cIb8soTglLk7IgDh89qzw7KZidK60TgjCxNvSHNsSgo7klxlBcAXugbumbaEkii0Yjk3URaAaDT1b3ZIl34ZPaDguFF7Dhau9lzclLQgnJ4eV04vllt0kbtSz1fTD1eSioA8oIgf0cvHDpB9mMrBdUuVL8gu70Tc8sAtgow11BObNm4cFCxcK4ks2jkNucbHbtA8IG7ImhAUECCWo1SoVarrRQenUgiAKJbnabgolsSBFVzHrn+vooSUKGokFk4b7Z7tS6YCXl2tsuC3iUVHRuPueZNQrFTh0+jgsNqvLGyKoHkIJh5cOTqqsSORgqDeh+IMVPEkFU5DiCPO5C8qSRAxGmsVkqJ/bYTp/0lSIHTcOLXK5UChq18GDbl2p0WAQ4hSKKisRbjIJKZMdtU4tCKLU8k2lxPYyy227Et0MogUhHM+/+DzLYnDrVrrWGZECCjqULAeu3TX0ryIrglrtoAzBHjfyz82ZtwiR4xNw4PQxlFVXdNkHEQMb1UnQe4NXaUVXQm8G7vFM+/cG4eFIOglkORiB/naeArlo/SNw7f17sljvfUGAPp8iIiKEbMCps2cjbNQobN67FyVuzKYRAhp1OiFFMjIkRKgD0bZ1SBDGh0zgIyLDoNaor0cb3Lzlpnuh/bc2c20d4iaMZWmOfTkRvbiXSMFwdSG4Ckd3paC76ofER0hU6b9+9yp+9efXOrQkUNwGBR/atb7gvL2HBSkQpJbpg2YEFxfiKVODZLEJA9YYAoMYARIq1Op0WLt2LaLi47HutdeEOAV3NXquU0VcCmxcOH069p88KXTdIUEYaxp7i81WogUdF3+WLqZqjszF4K4t67gfScyI5I+JHLBGz2seWq2jz1Bs3PgWTlxKx9cXz6PSXAOel8EhU8Em04IzGNDjYIc+z8jNHdCDkALwJIuBm7sfMt1RfIVUlnm4++CGzKawifYEgRdeeAEqb298cPgwqhsbUV5T41YxOCoZPSY0FK+uWyeQhnZCSbcTBGnqt9pxpWLP9HceyQvnMILQk13uwbVSoST6SS/W2iNAwYoKRc9jEW7F8b7FDyAkKhpfZWXhUlEFnHr90CYG12MLhKBDIgYuKisO2/NFugZSJcthu0i2sJGAAKVKpqSkwMvbWxBpa2hpweFU96Zwd2JBGEcFfQWM6d+VP1gBqoVN5lipkc8iMz0TaafTblwpWhBYDII7DydZCijYkD7XPVFB0Z1r6c++6GiSumJfmlCUSm3AqITJWHb/ElS1tOD948f70qXH7uXJn07fkungkOVgpPvXKUPBbAboNdJJksdOJRu4PxCgZ/OUKVPgpVJh0owZKG9owKfHjgn1FPraunUxJNyVgKUPLm1HDqRBC/MKsW/XPlSVVwuaCHMYQejrfoikjKfPdJlQRXE46Ra4BZwuOultRgNZZGycBnxoOCCTCxYDvVaLyTExWLNiBbz1emw7cgSfpafD5ka/X7/gQZaCujoxC4E9CEWIqSxzUZEYhMlcCv1y7FinnkeAghoNBgOioqPxs+eew8XcXGzcurVPE+uQIMRdj0Ege8GsxbMwb9G8DgepKK/AR9s/QnEepUiQi4FZEHq7G9LnllRBsbf9jOT75HIxo8GVJsRyyOSwODWA0UTmhy5viw4Lw5qlSzE+Lg6vf/IJ0gsKQBXQGiwWtHgyJVAS9iErAQkbsQfgzX10OERFyLIyV44Eu4YhMKwQIJn5tzZtwrmrV/HZ6dOoqavrcZnoTi0IkkZi8pJkLLhvQacEYc8/9qAolwrDMILQm9MlxRYI5m0niy3oDYbSPeRmICtCV7EI9Px0yFWwyzVw6HzAUYxBD5teo8HcadOE+gpHMzJQ53AgKCAAV0pKYCZp3oFoojQmePpWTNH4zFpwE3XaZMKGNO6ZrsFAnEY2xiBGICwsDCtXrkRmUZEQq5BXUoIcF4u5dWlBoDXPXzoPC5cs7HD55aXl2L1lNwpzC4U4BOZicO2U0OeX3T50CyW5tkrPXEXkgEjCrfIEgtvGoYDT1win8rrqoZs0DGLCwxESGIiMoiIY/fwwdcIEnMzORoGbarW3Q5J86URCiBiwqou3HzJK3yRiQKTJk5Ydzxx/NipDoFMEyP2QlJQEXqlETEICvkpNxYWcnC4R64Yg8EhZnoJ7l97bKUHYuXknCq4RQWAxCK6cTbEeAgs4dAWr3l5DbgZyN0jN1iqHIzAUvJe638WNdGo1DHq9YEkIMZlwx/jxuFRcDF76hs/zgqnPX6USp8fzqK2vh7dGg8q6OsipBkNXlRRFiczeQjOs7xPKVdM3oxGs7TCsN5gtzi0IaLVamEwmjJswAY+uWYMd+/dj/4kTHfbdpYuB7li0YhEWL7sPJSUlILEGhUKB6upqUIqFQq7Atne3IT87/zpBoDRHlsXQFmmJDJCYEXMhuOV8d9sJlYL2UvJwQg6L2h+cMWB4iBt1u/IReoEk+kRSySwGY4QeArbs3iIwa9YsPPeLX+DNnTtxJjMTFqv1RiG7bi0I9z90P5auWIrCwkKoVCqBILS2tgrRkuZaM7Zs2oK8q3mMILTZHYkU0E8iBiwTobdHtxf3kdtArRYKJ3HXyyv3ohd2y1BBoKVFzNqgF2sMAYZArxFITk7G8uXL8enJk6ixWJBVUIB/vvoqFHJ5e6EkKYuBAg/vnH0nnv3Fs7BYLIJSk91uF35SKcqykjJs/p/NKCsuFyY10mMQ2sYWUIwBawOMAAUc6nRi4KFCMcCDs+EGFAGyGkiVFwd76umAAsMGYwj0HgHSOoqNjUX8xImwKBT4+RNPdKykSDEF1Kgew+i40dB568DJBMVm4f/trXZUlFagvKgMdrtDsCDMFZQUR56LgVzCra0stqD3x7KPd+r14Pz9xfgCRgz6COYQuJ2sBhQASsGazKUwBDaMTXEoIhAcHIytW7eCCjq1k1qOM8XxIhG4Vbr21uqOEo2gK0ceQaAURdItYC4EDx1/ciMEB1Nuo4cmwIYdcASamkTRI9YYAgyBfkfgwIEDQlhBBwSh/dgcOIEE3GxtCQQFhGHYWxCk2AKptHK/7w4b4HYEJCtBcDA4RgxGzgmxWsFXVIhWA9YYAgyBAUHARYIgySZ1PCepasOcYepioOwDUdBI1C9gzQMIkOvAYBDLLVMQImsjAwFSQ6S0T6k09chYNVslQ2BQINAlQbhJC9r/Js6cB1kVxN9EijDcCAKpG0r1EFiKoofOq0IBLjBQjC3QaDw0CTasRxCgYGjSNaCiM0z7wSNbwAYd2Qh0ShDa2wzaEgQiBtRuygITQaArhkuQIqUmkqWAxT958M0hkwEmEziDYWiXW/YghEN5aKHyIlkNGDEYytvI5j7EEeiQIMSaYgWTgGghuNW9QGRAjEiQSIJIEChIce6QzGIQCvfwHFpbyWLAXAgeO9NECuRy0ZUQEOCxabCBPYgASUmTVHJDgwcnwYZmCDAECIEuLQht7QRSnIFIGaR/b7oYhiJBoLgCSbuAfmfNQwiQuJFOJ1RU5Hx8mMXAQ9vg6WEFXQMSPHJDHXtPr4WNzxAYDgh0E4MgWQmk7AXJuSC6FNpmNgwlgkCWAqdTJlgvWYqih4+xry84ii0ggkDWA9ZGHgKUoUAuBXqxxhBgCAwaBLp0MUizvJnQ2JE2gniVWKxpDn794q8FlUUSV/D19cX27ZuxffvfPL5gSfaYgg1ZwKHHtwPw9gZnNIriRuRaYG1kItDQILoUqMASawwBhsCgQqBTgnArFeicGkj0QMxiGEwEQQoypAqKjBQMgnNHFgK5HFxkJCMFg2A7PDoFSl8kNURyK7DGEGAIDEoEXLIgdDfztmmOg4EgiLEFYtAhIwbd7d4A/J0EjdRq0WLAxI0GAPBBPASJiVgs4EtKWIbCIN4mNjWGACEwbAhC20JJDgdLURwUx1ulAnx8wF2vrjgo5sQm4TkEKEOhpkbMUGDpi57bBzYyQ8BFBFwiCH/b/R4y0i/h6pWrWP6dZVj7yNN45/23cejAYfzjvW03ajZ4wsVAxMBqZYWSXNzvgbmM4gqMRjH4kFkMBgbzQT4Kb7EApaVU/3yQz5RNjyHAEJAQ6JYgSKoH0g2SO6FtBoMUn9ARQdixYwt27HB/kCJ9ARGJAUtPHFTHOTRULLfMGkPgOgKCGiLJJbPGEGAIDCkE9u/ff3uxJhJKaksEEu9KRENdPZoamxAcFoK01DRMmTYZleWVKMgrbCe1fGsMQm5uNnJyrroVFKkugls7ZZ31DQGlUnQlkKYBawwBCQGKN2C6Buw8MASGJAIpKSnCvNtVc4wxxbSr8/zUT9eiKL8IZaXlmDZjKv73rffw+I8fx8W0Czh+5MSNhSfNS8LPfvOzG2mOYWFhQxIUNmmGAEOAIcAQYAgwBCgDuRVlZWXCc10mk4FrSxC6Tm+8CR9ZHObfOx/rnl+H5uZmcBwHHYnfdNJ8fHygYcV32PljCDAEGAIMAYbAoEXA6XQKz3Rq9FxvRxDoP4+c/xKpp1JxMe0iVj+1GvfefR8OnPwMH+7aizc2vHFjYTPnzMSGNzfA39+/28Xm5uYiKCio2+vYBQwBhgBDgCHAEGAI9D8CTdWF+DI1B1NjTND5GuHt44U3Nu3AT9c9c2NwgSBInmTR19C9HYGHEzPnJGHDGxvAV1/BJ6dy8cDK74B3OsHJOOhlVth5J2R8C+SqQOTl5cFo0KDg3OcIT1yEhqZmyLUKvPTyJtyXYMT0xd9Hzpn9eH3HATy5fiNOnSvDwomBiAj0wZ6vLmDVomlQKuT47tPPYcY9KVi9eCq++egdzP/BL1Hf0IRypwHOhgoEKG0ICovEv499hmv5+Tj40V688ttngejZOJtVB2+VAg+t+g/MMRTj5ff+Cp3BB3KND1587hkUFRXg4fnjMOuhddAaI3Hygz9h4r1Pwmj0Q9PFPchXToDeUY2I+BmoqG2BRqsGZ2+GzS6DzlGOy6UtSM9rwNyYVlidOuw8UY2fLIvH+p8/gagFj6OWM2LVvIk4/vGH4FtqwDVk4vu/3YKKkjzs/eB9NBsnowqBqLqahvXPfgebdh3Ekw8tgopvwWO/24KFk0z48nI9/rB2CYKMaqhUaih13qiss0GLJtgVepSkHYB/7HR8fPgyXn/ht3j6qVX49soUyFVqaDUqOL2cyGzww+RANXQKJ478ax9OFQE/WvUt1NU1QqNSwFJvhlLOw8eggcpgwpmD/4fnX/kzVtyhxOrfbIKluQgHs5qwb/1Pse3EFSGr5fiFPAQoLThTG4j749VoMVfD30+PZqsDaoMfNLDCAg28vGTIzq9A2pV83D/RG/qgMXDInZBzajS22KBVyuGlYBLM/f/RwEZgCDAERjoCluZG7NryLqbER8E0KhaBsmJktsbj1Tf/AXVdBR555snbLQiugEYuhplz7sHLf3oFNWf/ifC7l+NYsROOFhsMWiAWl1HvFQaDXgatdhQqKipg8tXhyD/fRpPKiMNHjuKx9S8i+1INGjK+QFDcnUj7cDNi5y+DIWYy9h7JRkHq53j2mbX46JN9GBs/Cd+9bwY2f3oCZWe/RkygAtH+rTAl/RBHvjwE3/i5sJ7bicryAjz6yPdRXFKLbbv34I7xJjySkogcBOKLS3ZkZV7FocOpWKi7CO9gI6YvWIb4WQ/gnff+jslBToTIy5AwPQn70hvhXfENuOCJWPzgKlz7+A3kyiYhYupkyC21SCuUQ26+jFGRgSiqkWHpjGjs2fJX+MclISxAg68+3ot1z/8YLTYZdv3l9+DHPYDUAhuKzn6Ba6dTkRxeg3kp04GE1fDnKmEuz0dI4hK8s/sEzv87DYumhKGiyYL4uLGYwGcieP4aHNq/Fx/uOYlJvnWYMDEMY8eEIu6emXjpnSN4fFYQzpkNeGz1Q/j9S38CV1OJSl0cSj/bhLkzo3CmoBlrvrsYhfIgyELvgsrhxLxp0cj6+gDqoYbe1xdnrrYA9cUozkhHtLoS375/KhSRSSjIy8crb+/At6KbMX/+XATExKI29G7s+OUTmL5mI+6Ij4CXOQvHT17BVzVBMNpLUHThPNY+Mhsffnke31u7DvLiVJSp41BbW4LUjFoEOvIxO8IKsyoS45PiIJONxafHUzFWWYs7kxaCY3LMrrwN2TUMAYYAQ6DXCDSbK9HcVA1rkxXe/oHQc2YUtQbj3W2fYuWciUgvaLiVINxa7vn2saVKj+RieOmPL0FuqYIuIBQ1FhlkPA+Nwglnaz2cMj2UCic4uQalJaUICwnGlfQzsCp9UFVejuS5M1BldqKyKBdho6Kg5RtwNPUSwmInodbcCNTmwBA5CZYWC2qqqzEzcSwaeRVqLp8G56WCv48ONU49LE31UGl9oOfNqGuywdfLAZVPCOprqxDoq4RWp0W1XYXc/DLw1ibUtSoR62uFjVPCJyAM4eFhOH3sMGwOIHa0Cf7Bo/D5wa8wfXw4ZCotVAERaCq6gpDoBFg5L1y7loPAoFCUXzqJoJhJaGm1I1DPQaENwMnzWYgcFYrWigJEjjbBIdejqbYM1U4fVJqb8a8df0H0pCTEBQBjYkbjTHYj7p2TiCuZGWhwalFeXA6FRgVflRNNMh80VZcjPycHj65+GOZGC7LTLyI2TInSBh4GjQK+/gakpWfh7jvvQEFpNSZNmoQDB49hxngTKu0+KM08i3FjI3EmIx/TEyeiur4FLZwWNjuH0WEBQH0RalvVaDRXI3xMLErzcsDLlPB2mhEe4of6ZjusvBKZ2XmICVQiNDQECq0WNk0A6vIuI7/FB2PHhCBAL4fNocC5y4VQWGrAeWkRM8qErGs5mJqYiMqKEsgUamQXFSMiLArmoiuIjgpFTn45JkwcAytvQEFRMbyayxA5LhEcx+o19Ppdz25kCDAEGAK9RKDFaheeE+Emb9GfcGsWQ8eUoH06G1kQFi5Owc//8zk0uZDzTIWcDAZDL6c8fG5ramyEWquDXOZ6emCLtRUaldewAKF7+jkslskWwRBgCDAEhgUC/w8SqSZzv6rTvgAAAABJRU5ErkJggg==;fontSize=20;fontColor=#FFFFFF;" vertex="1" parent="1">
                    <mxGeometry x="460" y="210" width="362.47" height="152.65" as="geometry"/>
                </mxCell>
                <mxCell id="9" value="&lt;font color=&quot;#ffffff&quot;&gt;Other&lt;br&gt;Simulators&lt;br&gt;&lt;/font&gt;" style="strokeWidth=2;html=1;shape=mxgraph.flowchart.terminator;whiteSpace=wrap;labelBackgroundColor=none;fillColor=#F45B69;strokeColor=#028090;fontColor=#E4FDE1;" vertex="1" parent="1">
                    <mxGeometry x="120" y="340" width="100" height="60" as="geometry"/>
                </mxCell>
                <mxCell id="10" value="" style="endArrow=classic;startArrow=classic;html=1;fillColor=#6a00ff;fontColor=#E4FDE1;strokeColor=#3700CC;strokeWidth=3;entryX=0;entryY=0.5;entryDx=0;entryDy=0;exitX=1;exitY=0.5;exitDx=0;exitDy=0;exitPerimeter=0;" edge="1" parent="1" source="9" target="7">
                    <mxGeometry width="50" height="50" relative="1" as="geometry">
                        <mxPoint x="360" y="249.9988636363637" as="sourcePoint"/>
                        <mxPoint x="530" y="249.99500000000012" as="targetPoint"/>
                    </mxGeometry>
                </mxCell>
                <mxCell id="11" value="Inter Process&lt;br style=&quot;font-size: 15px;&quot;&gt;Communication&lt;br style=&quot;font-size: 15px;&quot;&gt;via ZeroMQ" style="edgeLabel;html=1;align=center;verticalAlign=middle;resizable=0;points=[];fontColor=#E4FDE1;labelBackgroundColor=none;fontSize=15;" vertex="1" connectable="0" parent="10">
                    <mxGeometry x="0.1294" y="-1" relative="1" as="geometry">
                        <mxPoint x="-6" y="-1" as="offset"/>
                    </mxGeometry>
                </mxCell>
            </root>
        </mxGraphModel>
    </diagram>
</mxfile>